solid Main.HumanModel.BodyModel.Left.Leg.Seg.Patella.DrwSurf
facet normal   5.381209210061302e-001  -7.882857519057717e-001   2.983813796433457e-001
  outer loop
    vertex   1.473503200000002e-003  -2.092785400000001e-002   2.497698600000035e-004
    vertex   5.176443600000003e-003  -1.699333100000001e-002   3.966150300000000e-003
    vertex   1.889762600000003e-003  -1.956478300000001e-002   3.100120500000003e-003
  endloop
endfacet
facet normal   4.465418300942863e-001  -7.995802128529916e-001   4.015866994685083e-001
  outer loop
    vertex   1.473503200000002e-003  -2.092785400000001e-002   2.497698600000035e-004
    vertex   3.219376800000004e-003  -2.032103900000001e-002  -4.833428799999985e-004
    vertex   5.176443600000003e-003  -1.699333100000001e-002   3.966150300000000e-003
  endloop
endfacet
facet normal   2.408706128706718e-001  -9.474345636954763e-001  -2.105922490750062e-001
  outer loop
    vertex   2.643390800000003e-003  -1.921368600000001e-002  -6.124018699999999e-003
    vertex   3.219376800000004e-003  -2.032103900000001e-002  -4.833428799999985e-004
    vertex   1.473503200000002e-003  -2.092785400000001e-002   2.497698600000035e-004
  endloop
endfacet
facet normal   3.106657927854729e-001  -6.352159200700517e-001   7.070979423548985e-001
  outer loop
    vertex   2.045363400000002e-003  -1.708651300000001e-002   5.258091300000003e-003
    vertex   1.889762600000003e-003  -1.956478300000001e-002   3.100120500000003e-003
    vertex   5.176443600000003e-003  -1.699333100000001e-002   3.966150300000000e-003
  endloop
endfacet
facet normal  -3.420936664648496e-001  -8.897833249008326e-001  -3.020886593254628e-001
  outer loop
    vertex  -2.197381999999998e-003  -1.811922200000001e-002  -3.865867399999996e-003
    vertex   2.643390800000003e-003  -1.921368600000001e-002  -6.124018699999999e-003
    vertex   1.473503200000002e-003  -2.092785400000001e-002   2.497698600000035e-004
  endloop
endfacet
facet normal  -6.131824458430023e-001  -7.899021443365385e-001   7.867050434046055e-003
  outer loop
    vertex   1.473503200000002e-003  -2.092785400000001e-002   2.497698600000035e-004
    vertex  -6.574366699999999e-003  -1.467463800000001e-002   8.365435600000064e-004
    vertex  -2.197381999999998e-003  -1.811922200000001e-002  -3.865867399999996e-003
  endloop
endfacet
facet normal   8.051055447254651e-001  -5.870228141869746e-001   8.490746419671733e-002
  outer loop
    vertex   5.176443600000003e-003  -1.699333100000001e-002   3.966150300000000e-003
    vertex   3.219376800000004e-003  -2.032103900000001e-002  -4.833428799999985e-004
    vertex   7.754092600000003e-003  -1.480423100000000e-002  -5.340780100000002e-003
  endloop
endfacet
facet normal   6.569759546288084e-001  -7.242837771766222e-001  -2.092739954182821e-001
  outer loop
    vertex   7.754092600000003e-003  -1.480423100000000e-002  -5.340780100000002e-003
    vertex   3.219376800000004e-003  -2.032103900000001e-002  -4.833428799999985e-004
    vertex   2.643390800000003e-003  -1.921368600000001e-002  -6.124018699999999e-003
  endloop
endfacet
facet normal  -2.058407269142246e-002  -9.923825479366477e-001  -1.214626465305329e-001
  outer loop
    vertex   5.176443600000003e-003  -1.699333100000001e-002   3.966150300000000e-003
    vertex   2.507308700000001e-003  -1.740003200000000e-002   7.741340900000001e-003
    vertex   2.045363400000002e-003  -1.708651300000001e-002   5.258091300000003e-003
  endloop
endfacet
facet normal  -5.869120382691789e-001  -7.767815400730974e-001   2.283521367020346e-001
  outer loop
    vertex  -4.642125699999999e-003  -1.470977300000001e-002   5.683282900000006e-003
    vertex  -6.574366699999999e-003  -1.467463800000001e-002   8.365435600000064e-004
    vertex   1.473503200000002e-003  -2.092785400000001e-002   2.497698600000035e-004
  endloop
endfacet
facet normal  -4.165061387075502e-001  -7.950065147375941e-001   4.410071177925708e-001
  outer loop
    vertex  -4.642125699999999e-003  -1.470977300000001e-002   5.683282900000006e-003
    vertex   1.473503200000002e-003  -2.092785400000001e-002   2.497698600000035e-004
    vertex   1.889762600000003e-003  -1.956478300000001e-002   3.100120500000003e-003
  endloop
endfacet
facet normal   6.221994756065621e-001  -6.414268458786274e-001  -4.488200239974980e-001
  outer loop
    vertex   3.486542300000002e-003  -1.232598100000000e-002  -1.479865500000000e-002
    vertex   7.754092600000003e-003  -1.480423100000000e-002  -5.340780100000002e-003
    vertex   2.643390800000003e-003  -1.921368600000001e-002  -6.124018699999999e-003
  endloop
endfacet
facet normal   6.100792174097482e-001  -7.083492448677812e-001   3.550277394513748e-001
  outer loop
    vertex   5.176443600000003e-003  -1.699333100000001e-002   3.966150300000000e-003
    vertex   6.097796800000004e-003  -1.348438000000000e-002   9.383936400000001e-003
    vertex   2.507308700000001e-003  -1.740003200000000e-002   7.741340900000001e-003
  endloop
endfacet
facet normal  -6.102752883093570e-001  -6.459525511223939e-001  -4.585950001661621e-001
  outer loop
    vertex   8.409911500000012e-004  -1.285699200000001e-002  -1.532128000000000e-002
    vertex  -2.197381999999998e-003  -1.811922200000001e-002  -3.865867399999996e-003
    vertex  -5.345464200000000e-003  -1.472809300000001e-002  -4.453121199999994e-003
  endloop
endfacet
facet normal  -1.797737469659272e-001  -6.395476116520666e-001   7.474357847547629e-001
  outer loop
    vertex  -4.642125699999999e-003  -1.470977300000001e-002   5.683282900000006e-003
    vertex   1.889762600000003e-003  -1.956478300000001e-002   3.100120500000003e-003
    vertex   2.045363400000002e-003  -1.708651300000001e-002   5.258091300000003e-003
  endloop
endfacet
facet normal  -3.375085394891358e-001  -9.396641140497987e-001  -5.585103883472153e-002
  outer loop
    vertex  -4.642125699999999e-003  -1.470977300000001e-002   5.683282900000006e-003
    vertex   2.045363400000002e-003  -1.708651300000001e-002   5.258091300000003e-003
    vertex   2.507308700000001e-003  -1.740003200000000e-002   7.741340900000001e-003
  endloop
endfacet
facet normal   5.882623216563884e-001  -7.053365653173414e-001   3.955347905630702e-001
  outer loop
    vertex   3.979634000000003e-003  -1.296496100000000e-002   1.346044400000000e-002
    vertex   2.507308700000001e-003  -1.740003200000000e-002   7.741340900000001e-003
    vertex   6.097796800000004e-003  -1.348438000000000e-002   9.383936400000001e-003
  endloop
endfacet
facet normal  -7.098872503288075e-001  -6.863676478715524e-001  -1.579858973955516e-001
  outer loop
    vertex  -2.197381999999998e-003  -1.811922200000001e-002  -3.865867399999996e-003
    vertex  -6.574366699999999e-003  -1.467463800000001e-002   8.365435600000064e-004
    vertex  -5.345464200000000e-003  -1.472809300000001e-002  -4.453121199999994e-003
  endloop
endfacet
facet normal  -4.121149792488417e-001  -8.556108305668042e-001   3.131953870916848e-001
  outer loop
    vertex   2.507308700000001e-003  -1.740003200000000e-002   7.741340900000001e-003
    vertex  -7.376670800000003e-003  -1.145200400000000e-002   1.098487900000001e-002
    vertex  -4.642125699999999e-003  -1.470977300000001e-002   5.683282900000006e-003
  endloop
endfacet
facet normal   3.668772454584989e-002  -7.942497247895614e-001   6.064827990465631e-001
  outer loop
    vertex   3.979634000000003e-003  -1.296496100000000e-002   1.346044400000000e-002
    vertex   2.119684800000003e-003  -1.165488300000000e-002   1.528863500000000e-002
    vertex   2.507308700000001e-003  -1.740003200000000e-002   7.741340900000001e-003
  endloop
endfacet
facet normal  -3.968367241588922e-001  -7.896279172164291e-001  -4.679832974704155e-001
  outer loop
    vertex   8.409911500000012e-004  -1.285699200000001e-002  -1.532128000000000e-002
    vertex   2.643390800000003e-003  -1.921368600000001e-002  -6.124018699999999e-003
    vertex  -2.197381999999998e-003  -1.811922200000001e-002  -3.865867399999996e-003
  endloop
endfacet
facet normal   2.690365520716417e-001  -7.668428853005901e-001  -5.827274859771665e-001
  outer loop
    vertex   2.643390800000003e-003  -1.921368600000001e-002  -6.124018699999999e-003
    vertex   8.409911500000012e-004  -1.285699200000001e-002  -1.532128000000000e-002
    vertex   3.486542300000002e-003  -1.232598100000000e-002  -1.479865500000000e-002
  endloop
endfacet
facet normal  -2.762174158609759e-001  -7.715224357885638e-001   5.731117432490511e-001
  outer loop
    vertex   2.119684800000003e-003  -1.165488300000000e-002   1.528863500000000e-002
    vertex  -7.376670800000003e-003  -1.145200400000000e-002   1.098487900000001e-002
    vertex   2.507308700000001e-003  -1.740003200000000e-002   7.741340900000001e-003
  endloop
endfacet
facet normal  -4.234542614949586e-001  -9.015086497170698e-001  -8.926725551435216e-002
  outer loop
    vertex  -5.345464200000000e-003  -1.472809300000001e-002  -4.453121199999994e-003
    vertex  -6.574366699999999e-003  -1.467463800000001e-002   8.365435600000064e-004
    vertex  -8.744304099999999e-003  -1.333854100000001e-002  -2.363216099999993e-003
  endloop
endfacet
facet normal  -4.709420292990618e-001  -8.606428790966325e-001  -1.936683755803738e-001
  outer loop
    vertex  -5.345464200000000e-003  -1.472809300000001e-002  -4.453121199999994e-003
    vertex  -8.744304099999999e-003  -1.333854100000001e-002  -2.363216099999993e-003
    vertex  -7.916286600000001e-003  -1.340039400000001e-002  -4.101831899999993e-003
  endloop
endfacet
facet normal  -4.999265571051355e-001  -8.287736560528666e-001   2.514113452765616e-001
  outer loop
    vertex  -8.512717700000000e-003  -1.221128900000001e-002   6.222900500000007e-003
    vertex  -4.642125699999999e-003  -1.470977300000001e-002   5.683282900000006e-003
    vertex  -7.376670800000003e-003  -1.145200400000000e-002   1.098487900000001e-002
  endloop
endfacet
facet normal   1.471967862052878e-001  -9.835084117151459e-001   1.050919131826321e-001
  outer loop
    vertex  -7.916286600000001e-003  -1.340039400000001e-002  -4.101831899999993e-003
    vertex  -8.744304099999999e-003  -1.333854100000001e-002  -2.363216099999993e-003
    vertex  -8.552370599999999e-003  -1.345498800000001e-002  -3.721822999999993e-003
  endloop
endfacet
facet normal  -6.400447613872581e-001  -7.593831698166552e-001   1.169611252508147e-001
  outer loop
    vertex  -8.512717700000000e-003  -1.221128900000001e-002   6.222900500000007e-003
    vertex  -8.744304099999999e-003  -1.333854100000001e-002  -2.363216099999993e-003
    vertex  -6.574366699999999e-003  -1.467463800000001e-002   8.365435600000064e-004
  endloop
endfacet
facet normal  -5.119511558439690e-001  -8.358746766039906e-001   1.980392361179932e-001
  outer loop
    vertex  -4.642125699999999e-003  -1.470977300000001e-002   5.683282900000006e-003
    vertex  -8.512717700000000e-003  -1.221128900000001e-002   6.222900500000007e-003
    vertex  -6.574366699999999e-003  -1.467463800000001e-002   8.365435600000064e-004
  endloop
endfacet
facet normal  -2.845660535929095e-001  -7.537359862498821e-001   5.923716942718270e-001
  outer loop
    vertex  -2.364706499999999e-003  -1.145542500000000e-002   1.338819500000001e-002
    vertex  -7.376670800000003e-003  -1.145200400000000e-002   1.098487900000001e-002
    vertex   2.119684800000003e-003  -1.165488300000000e-002   1.528863500000000e-002
  endloop
endfacet
facet normal  -4.611901798128804e-001  -7.821422083939645e-001  -4.189954461480163e-001
  outer loop
    vertex  -7.916286600000001e-003  -1.340039400000001e-002  -4.101831899999993e-003
    vertex  -2.993494700000000e-003  -1.076174700000000e-002  -1.444595500000000e-002
    vertex  -5.345464200000000e-003  -1.472809300000001e-002  -4.453121199999994e-003
  endloop
endfacet
facet normal   9.246702453651119e-001  -3.715279363891939e-001   8.337823348339049e-002
  outer loop
    vertex   6.097796800000004e-003  -1.348438000000000e-002   9.383936400000001e-003
    vertex   5.176443600000003e-003  -1.699333100000001e-002   3.966150300000000e-003
    vertex   9.444233000000002e-003  -6.481034200000000e-003   3.478181999999996e-003
  endloop
endfacet
facet normal  -5.026118577573937e-001   3.482273813513762e-001  -7.912768234434928e-001
  outer loop
    vertex  -7.916286600000001e-003  -1.340039400000001e-002  -4.101831899999993e-003
    vertex  -8.552370599999999e-003  -1.345498800000001e-002  -3.721822999999993e-003
    vertex  -8.363488100000000e-003  -1.243118800000000e-002  -3.391242599999993e-003
  endloop
endfacet
facet normal  -5.072080498295262e-001  -7.534297411248884e-001  -4.184299456021436e-001
  outer loop
    vertex  -2.993494700000000e-003  -1.076174700000000e-002  -1.444595500000000e-002
    vertex   8.409911500000012e-004  -1.285699200000001e-002  -1.532128000000000e-002
    vertex  -5.345464200000000e-003  -1.472809300000001e-002  -4.453121199999994e-003
  endloop
endfacet
facet normal  -3.106163145397324e-002  -9.975074151532596e-001   6.335717611825989e-002
  outer loop
    vertex  -7.376670800000003e-003  -1.145200400000000e-002   1.098487900000001e-002
    vertex  -2.364706499999999e-003  -1.145542500000000e-002   1.338819500000001e-002
    vertex  -7.380228500000000e-003  -1.126193800000000e-002   1.397557000000001e-002
  endloop
endfacet
facet normal  -9.613131012462054e-001   2.275018687567502e-001  -1.553062171472523e-001
  outer loop
    vertex  -8.552370599999999e-003  -1.345498800000001e-002  -3.721822999999993e-003
    vertex  -8.744304099999999e-003  -1.333854100000001e-002  -2.363216099999993e-003
    vertex  -8.363488100000000e-003  -1.243118800000000e-002  -3.391242599999993e-003
  endloop
endfacet
facet normal   9.160675987253717e-001  -3.641040132021762e-001   1.680726692106743e-001
  outer loop
    vertex   5.176443600000003e-003  -1.699333100000001e-002   3.966150300000000e-003
    vertex   7.754092600000003e-003  -1.480423100000000e-002  -5.340780100000002e-003
    vertex   9.444233000000002e-003  -6.481034200000000e-003   3.478181999999996e-003
  endloop
endfacet
facet normal  -3.562680093161519e-001  -5.021782929975556e-001   7.879657781781945e-001
  outer loop
    vertex  -2.364706499999999e-003  -1.145542500000000e-002   1.338819500000001e-002
    vertex   2.119684800000003e-003  -1.165488300000000e-002   1.528863500000000e-002
    vertex   2.057988000000012e-004  -9.151804300000002e-003   1.601853400000000e-002
  endloop
endfacet
facet normal  -9.690962461538808e-001  -5.630491228452243e-002   2.401712358778403e-001
  outer loop
    vertex  -7.376670800000003e-003  -1.145200400000000e-002   1.098487900000001e-002
    vertex  -7.897909700000001e-003  -6.856861500000004e-003   9.958937800000007e-003
    vertex  -8.512717700000000e-003  -1.221128900000001e-002   6.222900500000007e-003
  endloop
endfacet
facet normal  -2.025803857216174e-001  -6.299932696667495e-001   7.497130567727087e-001
  outer loop
    vertex  -2.364706499999999e-003  -1.145542500000000e-002   1.338819500000001e-002
    vertex   2.057988000000012e-004  -9.151804300000002e-003   1.601853400000000e-002
    vertex  -4.403484899999986e-004  -8.943890200000004e-003   1.601865100000000e-002
  endloop
endfacet
facet normal   4.994448700090046e-002  -7.403607768683963e-001   6.703517496755280e-001
  outer loop
    vertex  -4.403484899999986e-004  -8.943890200000004e-003   1.601865100000000e-002
    vertex  -7.380228500000000e-003  -1.126193800000000e-002   1.397557000000001e-002
    vertex  -2.364706499999999e-003  -1.145542500000000e-002   1.338819500000001e-002
  endloop
endfacet
facet normal   1.474094722542560e-001  -8.646360849977485e-001   4.802862563195913e-001
  outer loop
    vertex  -4.403484899999986e-004  -8.943890200000004e-003   1.601865100000000e-002
    vertex  -5.696614700000000e-003  -9.048369700000003e-003   1.744381500000001e-002
    vertex  -7.380228500000000e-003  -1.126193800000000e-002   1.397557000000001e-002
  endloop
endfacet
facet normal  -4.084030044296697e-001  -5.291553856901508e-001   7.437752105091479e-001
  outer loop
    vertex   2.057988000000012e-004  -9.151804300000002e-003   1.601853400000000e-002
    vertex   2.119684800000003e-003  -1.165488300000000e-002   1.528863500000000e-002
    vertex   4.983462900000025e-004  -8.792581000000004e-003   1.643473800000000e-002
  endloop
endfacet
facet normal   1.551077713645831e-001   4.815524486110759e-001   8.625826444457304e-001
  outer loop
    vertex   2.973125400000012e-004  -8.910597300000002e-003   1.586742000000001e-002
    vertex  -4.403484899999986e-004  -8.943890200000004e-003   1.601865100000000e-002
    vertex   2.057988000000012e-004  -9.151804300000002e-003   1.601853400000000e-002
  endloop
endfacet
facet normal  -8.630745619931863e-001   4.592076296765463e-001   2.103108491902340e-001
  outer loop
    vertex   2.057988000000012e-004  -9.151804300000002e-003   1.601853400000000e-002
    vertex   4.983462900000025e-004  -8.792581000000004e-003   1.643473800000000e-002
    vertex   2.973125400000012e-004  -8.910597300000002e-003   1.586742000000001e-002
  endloop
endfacet
facet normal   3.978602739315478e-001  -5.044897495550309e-001   7.662879974402679e-001
  outer loop
    vertex   4.054528200000003e-003  -5.682792000000001e-003   1.821581300000000e-002
    vertex   2.119684800000003e-003  -1.165488300000000e-002   1.528863500000000e-002
    vertex   3.979634000000003e-003  -1.296496100000000e-002   1.346044400000000e-002
  endloop
endfacet
facet normal   8.029505760251483e-002  -9.811717607309183e-001   1.756550018325650e-001
  outer loop
    vertex   2.973125400000012e-004  -8.910597300000002e-003   1.586742000000001e-002
    vertex   4.983462900000025e-004  -8.792581000000004e-003   1.643473800000000e-002
    vertex  -4.403484899999986e-004  -8.943890200000004e-003   1.601865100000000e-002
  endloop
endfacet
facet normal  -3.224603367380560e-001  -5.035906699084990e-001   8.015084331508240e-001
  outer loop
    vertex   4.983462900000025e-004  -8.792581000000004e-003   1.643473800000000e-002
    vertex   2.119684800000003e-003  -1.165488300000000e-002   1.528863500000000e-002
    vertex   1.222028300000002e-003  -7.165236400000001e-003   1.774835400000000e-002
  endloop
endfacet
facet normal   2.646046324258380e-001  -5.172198391106733e-001  -8.139213884209682e-001
  outer loop
    vertex   3.486542300000002e-003  -1.232598100000000e-002  -1.479865500000000e-002
    vertex   8.409911500000012e-004  -1.285699200000001e-002  -1.532128000000000e-002
    vertex   3.824561800000001e-003  -2.310361200000001e-003  -2.105335700000001e-002
  endloop
endfacet
facet normal   3.314685117066095e-001  -7.885443992023715e-001   5.180022743517408e-001
  outer loop
    vertex  -2.521947499999999e-003  -6.353750400000003e-003   1.951431700000000e-002
    vertex  -5.696614700000000e-003  -9.048369700000003e-003   1.744381500000001e-002
    vertex  -1.108452699999999e-003  -7.113584300000001e-003   1.745314500000001e-002
  endloop
endfacet
facet normal   2.291383994071063e-001  -5.472620380465388e-001   8.049843822275672e-001
  outer loop
    vertex  -1.108452699999999e-003  -7.113584300000001e-003   1.745314500000001e-002
    vertex  -5.696614700000000e-003  -9.048369700000003e-003   1.744381500000001e-002
    vertex  -4.403484899999986e-004  -8.943890200000004e-003   1.601865100000000e-002
  endloop
endfacet
facet normal  -2.178915323790195e-001  -6.500725595891953e-001   7.279621881572385e-001
  outer loop
    vertex  -4.403484899999986e-004  -8.943890200000004e-003   1.601865100000000e-002
    vertex   4.983462900000025e-004  -8.792581000000004e-003   1.643473800000000e-002
    vertex  -1.108452699999999e-003  -7.113584300000001e-003   1.745314500000001e-002
  endloop
endfacet
facet normal  -1.141262012903333e-001  -5.927857879346667e-001   7.972328516824396e-001
  outer loop
    vertex  -1.108452699999999e-003  -7.113584300000001e-003   1.745314500000001e-002
    vertex   4.983462900000025e-004  -8.792581000000004e-003   1.643473800000000e-002
    vertex   1.222028300000002e-003  -7.165236400000001e-003   1.774835400000000e-002
  endloop
endfacet
facet normal   9.705295291219129e-002  -4.632173145257689e-001   8.809145496894456e-001
  outer loop
    vertex   1.222028300000002e-003  -7.165236400000001e-003   1.774835400000000e-002
    vertex   2.119684800000003e-003  -1.165488300000000e-002   1.528863500000000e-002
    vertex   4.054528200000003e-003  -5.682792000000001e-003   1.821581300000000e-002
  endloop
endfacet
facet normal  -8.457605153428723e-001  -2.564192165431268e-001  -4.679084697613070e-001
  outer loop
    vertex  -2.993494700000000e-003  -1.076174700000000e-002  -1.444595500000000e-002
    vertex  -7.916286600000001e-003  -1.340039400000001e-002  -4.101831899999993e-003
    vertex  -5.091560500000001e-003  -8.203347200000004e-003  -1.205566200000000e-002
  endloop
endfacet
facet normal  -4.537845474537103e-001  -5.317274586823401e-001  -7.150842566966860e-001
  outer loop
    vertex  -1.718242800000001e-003  -2.488879000000002e-003  -2.140681400000000e-002
    vertex   8.409911500000012e-004  -1.285699200000001e-002  -1.532128000000000e-002
    vertex  -2.993494700000000e-003  -1.076174700000000e-002  -1.444595500000000e-002
  endloop
endfacet
facet normal  -9.937572919353903e-001  -1.114076185672234e-001   5.898071754347894e-003
  outer loop
    vertex  -7.376670800000003e-003  -1.145200400000000e-002   1.098487900000001e-002
    vertex  -7.380228500000000e-003  -1.126193800000000e-002   1.397557000000001e-002
    vertex  -7.897909700000001e-003  -6.856861500000004e-003   9.958937800000007e-003
  endloop
endfacet
facet normal   8.422867405728866e-001  -2.620507039165747e-001   4.710440268509206e-001
  outer loop
    vertex   3.979634000000003e-003  -1.296496100000000e-002   1.346044400000000e-002
    vertex   6.097796800000004e-003  -1.348438000000000e-002   9.383936400000001e-003
    vertex   8.591403300000002e-003  -4.217525000000000e-003   1.008037700000000e-002
  endloop
endfacet
facet normal  -9.253932506130137e-001   1.901793384844492e-001   3.278401301450102e-001
  outer loop
    vertex  -7.380228500000000e-003  -1.126193800000000e-002   1.397557000000001e-002
    vertex  -5.696614700000000e-003  -9.048369700000003e-003   1.744381500000001e-002
    vertex  -7.897909700000001e-003  -6.856861500000004e-003   9.958937800000007e-003
  endloop
endfacet
facet normal  -6.992633936698408e-001   1.910319813184094e-001   6.888668146941760e-001
  outer loop
    vertex  -5.696614700000000e-003  -9.048369700000003e-003   1.744381500000001e-002
    vertex  -3.124295300000000e-003  -5.460213900000001e-003   1.905991300000001e-002
    vertex  -4.888556399999999e-003  -5.751187400000002e-003   1.734971600000001e-002
  endloop
endfacet
facet normal  -5.672144815961371e-001   3.605270274258787e-002   8.227806113980690e-001
  outer loop
    vertex  -2.521947499999999e-003  -6.353750400000003e-003   1.951431700000000e-002
    vertex  -3.124295300000000e-003  -5.460213900000001e-003   1.905991300000001e-002
    vertex  -5.696614700000000e-003  -9.048369700000003e-003   1.744381500000001e-002
  endloop
endfacet
facet normal  -8.829642627177781e-002   5.925067038927179e-001   8.007119000925487e-001
  outer loop
    vertex   1.313999600000002e-003  -6.568327100000002e-003   1.731679800000000e-002
    vertex  -1.108452699999999e-003  -7.113584300000001e-003   1.745314500000001e-002
    vertex   1.222028300000002e-003  -7.165236400000001e-003   1.774835400000000e-002
  endloop
endfacet
facet normal  -5.663314858602305e-001   5.384077116830764e-001   6.240078397933291e-001
  outer loop
    vertex   2.003445800000002e-003  -6.436357300000001e-003   1.782865300000000e-002
    vertex   1.313999600000002e-003  -6.568327100000002e-003   1.731679800000000e-002
    vertex   1.222028300000002e-003  -7.165236400000001e-003   1.774835400000000e-002
  endloop
endfacet
facet normal  -2.350838853633975e-001   1.461663414914286e-001   9.609219361932894e-001
  outer loop
    vertex   2.003445800000002e-003  -6.436357300000001e-003   1.782865300000000e-002
    vertex   1.222028300000002e-003  -7.165236400000001e-003   1.774835400000000e-002
    vertex   4.054528200000003e-003  -5.682792000000001e-003   1.821581300000000e-002
  endloop
endfacet
facet normal   5.491866202178927e-001  -4.608812351150172e-001   6.971244819201981e-001
  outer loop
    vertex   4.054528200000003e-003  -5.682792000000001e-003   1.821581300000000e-002
    vertex   3.979634000000003e-003  -1.296496100000000e-002   1.346044400000000e-002
    vertex   6.564132400000002e-003  -2.737493999999999e-003   1.818596400000000e-002
  endloop
endfacet
facet normal   4.144688929926371e-001  -7.241604669822143e-001   5.511870415762324e-001
  outer loop
    vertex  -2.521947499999999e-003  -6.353750400000003e-003   1.951431700000000e-002
    vertex  -1.108452699999999e-003  -7.113584300000001e-003   1.745314500000001e-002
    vertex   2.499056400000129e-005  -5.448798599999999e-003   1.878807300000000e-002
  endloop
endfacet
facet normal   8.886022549722364e-001  -3.573900938791642e-001   2.875036578120335e-001
  outer loop
    vertex   6.564132400000002e-003  -2.737493999999999e-003   1.818596400000000e-002
    vertex   3.979634000000003e-003  -1.296496100000000e-002   1.346044400000000e-002
    vertex   8.591403300000002e-003  -4.217525000000000e-003   1.008037700000000e-002
  endloop
endfacet
facet normal  -9.104192963130116e-001  -1.328373626150631e-001  -3.917791980113229e-001
  outer loop
    vertex  -7.916286600000001e-003  -1.340039400000001e-002  -4.101831899999993e-003
    vertex  -8.363488100000000e-003  -1.243118800000000e-002  -3.391242599999993e-003
    vertex  -9.836525700000001e-003  -3.545977900000003e-003  -2.980822699999994e-003
  endloop
endfacet
facet normal  -8.884293180841579e-001  -1.269126451351338e-001  -4.411196292088144e-001
  outer loop
    vertex  -9.836525700000001e-003  -3.545977900000003e-003  -2.980822699999994e-003
    vertex  -8.363488100000000e-003  -1.243118800000000e-002  -3.391242599999993e-003
    vertex  -8.744304099999999e-003  -1.333854100000001e-002  -2.363216099999993e-003
  endloop
endfacet
facet normal   1.946934477724194e-001  -6.908683077352774e-001   6.962725348320743e-001
  outer loop
    vertex   2.499056400000129e-005  -5.448798599999999e-003   1.878807300000000e-002
    vertex  -1.108452699999999e-003  -7.113584300000001e-003   1.745314500000001e-002
    vertex   1.313999600000002e-003  -6.568327100000002e-003   1.731679800000000e-002
  endloop
endfacet
facet normal  -1.935032553709160e-001  -8.550467446928095e-001   4.810941223410317e-001
  outer loop
    vertex   2.003445800000002e-003  -6.436357300000001e-003   1.782865300000000e-002
    vertex   2.499056400000129e-005  -5.448798599999999e-003   1.878807300000000e-002
    vertex   1.313999600000002e-003  -6.568327100000002e-003   1.731679800000000e-002
  endloop
endfacet
facet normal   7.117755221545007e-002  -4.917849621979159e-001  -8.678025737554662e-001
  outer loop
    vertex   8.409911500000012e-004  -1.285699200000001e-002  -1.532128000000000e-002
    vertex  -1.718242800000001e-003  -2.488879000000002e-003  -2.140681400000000e-002
    vertex   3.824561800000001e-003  -2.310361200000001e-003  -2.105335700000001e-002
  endloop
endfacet
facet normal  -5.877981761840256e-001   1.510101116044605e-002   8.088666537425470e-001
  outer loop
    vertex  -3.124295300000000e-003  -5.460213900000001e-003   1.905991300000001e-002
    vertex  -2.521947499999999e-003  -6.353750400000003e-003   1.951431700000000e-002
    vertex  -2.410458400000000e-003  -5.172915800000000e-003   1.957329000000000e-002
  endloop
endfacet
facet normal   2.676137788019756e-001   1.990179328721391e-002   9.633207067323323e-001
  outer loop
    vertex  -1.086384799999999e-003  -5.305384800000000e-003   1.909385400000001e-002
    vertex  -2.521947499999999e-003  -6.353750400000003e-003   1.951431700000000e-002
    vertex   2.499056400000129e-005  -5.448798599999999e-003   1.878807300000000e-002
  endloop
endfacet
facet normal  -4.027194841283115e-001   8.756797085243251e-001   2.664621271066109e-001
  outer loop
    vertex  -2.390975599999999e-003  -4.890339900000001e-003   1.829543300000000e-002
    vertex  -4.888556399999999e-003  -5.751187400000002e-003   1.734971600000001e-002
    vertex  -3.124295300000000e-003  -5.460213900000001e-003   1.905991300000001e-002
  endloop
endfacet
facet normal  -1.829544551391524e-001   9.589665407304968e-001   2.165891066146223e-001
  outer loop
    vertex  -1.065869999999999e-003  -4.939734500000001e-003   1.829613200000000e-002
    vertex  -1.586489599999999e-003  -4.950853500000001e-003   1.790559100000001e-002
    vertex  -1.842707199999999e-003  -5.175008900000000e-003   1.868162900000001e-002
  endloop
endfacet
facet normal   2.333634697463963e-001   9.109474147599186e-001   3.401709842566582e-001
  outer loop
    vertex  -2.390975599999999e-003  -4.890339900000001e-003   1.829543300000000e-002
    vertex  -1.842707199999999e-003  -5.175008900000000e-003   1.868162900000001e-002
    vertex  -1.586489599999999e-003  -4.950853500000001e-003   1.790559100000001e-002
  endloop
endfacet
facet normal  -1.474136450264590e-001   8.636135737933303e-001  -4.821211594816445e-001
  outer loop
    vertex  -1.842707199999999e-003  -5.175008900000000e-003   1.868162900000001e-002
    vertex  -2.428383800000000e-003  -5.014183500000002e-003   1.914878900000000e-002
    vertex  -1.711434300000000e-003  -4.857966700000001e-003   1.920940200000000e-002
  endloop
endfacet
facet normal  -3.435336387980891e-001   6.676075441589874e-001  -6.605185886832785e-001
  outer loop
    vertex  -1.842707199999999e-003  -5.175008900000000e-003   1.868162900000001e-002
    vertex  -3.124295300000000e-003  -5.460213900000001e-003   1.905991300000001e-002
    vertex  -2.428383800000000e-003  -5.014183500000002e-003   1.914878900000000e-002
  endloop
endfacet
facet normal  -2.811886166335218e-003   8.030388531582048e-001   5.959200396148319e-001
  outer loop
    vertex  -1.842707199999999e-003  -5.175008900000000e-003   1.868162900000001e-002
    vertex  -2.390975599999999e-003  -4.890339900000001e-003   1.829543300000000e-002
    vertex  -3.124295300000000e-003  -5.460213900000001e-003   1.905991300000001e-002
  endloop
endfacet
facet normal  -5.403610673546809e-001   7.803963998824782e-001   3.146289496180809e-001
  outer loop
    vertex  -2.410458400000000e-003  -5.172915800000000e-003   1.957329000000000e-002
    vertex  -2.428383800000000e-003  -5.014183500000002e-003   1.914878900000000e-002
    vertex  -3.124295300000000e-003  -5.460213900000001e-003   1.905991300000001e-002
  endloop
endfacet
facet normal  -6.931470399356453e-002   9.075404505210422e-001   4.142050246898851e-001
  outer loop
    vertex  -1.065869999999999e-003  -4.939734500000001e-003   1.829613200000000e-002
    vertex  -1.842707199999999e-003  -5.175008900000000e-003   1.868162900000001e-002
    vertex  -1.086384799999999e-003  -5.305384800000000e-003   1.909385400000001e-002
  endloop
endfacet
facet normal   4.207169719902098e-001   7.276606915061642e-001  -5.417629993974854e-001
  outer loop
    vertex  -1.842707199999999e-003  -5.175008900000000e-003   1.868162900000001e-002
    vertex  -1.711434300000000e-003  -4.857966700000001e-003   1.920940200000000e-002
    vertex  -1.086384799999999e-003  -5.305384800000000e-003   1.909385400000001e-002
  endloop
endfacet
facet normal   2.269368699888068e-001   8.831114363919531e-001   4.106261656950572e-001
  outer loop
    vertex  -1.086384799999999e-003  -5.305384800000000e-003   1.909385400000001e-002
    vertex   2.499056400000129e-005  -5.448798599999999e-003   1.878807300000000e-002
    vertex  -1.065869999999999e-003  -4.939734500000001e-003   1.829613200000000e-002
  endloop
endfacet
facet normal   5.223079099317886e-001  -4.168498604022924e-001   7.439291909216064e-001
  outer loop
    vertex  -2.521947499999999e-003  -6.353750400000003e-003   1.951431700000000e-002
    vertex  -1.086384799999999e-003  -5.305384800000000e-003   1.909385400000001e-002
    vertex  -1.629592299999998e-003  -5.096091400000001e-003   1.959251100000000e-002
  endloop
endfacet
facet normal   5.888404150102179e-001   7.368285889031890e-001   3.321906022534798e-001
  outer loop
    vertex  -1.086384799999999e-003  -5.305384800000000e-003   1.909385400000001e-002
    vertex  -1.711434300000000e-003  -4.857966700000001e-003   1.920940200000000e-002
    vertex  -1.629592299999998e-003  -5.096091400000001e-003   1.959251100000000e-002
  endloop
endfacet
facet normal  -1.985939721471615e-002  -4.799933502242212e-002   9.986499227355267e-001
  outer loop
    vertex  -2.521947499999999e-003  -6.353750400000003e-003   1.951431700000000e-002
    vertex  -1.629592299999998e-003  -5.096091400000001e-003   1.959251100000000e-002
    vertex  -2.410458400000000e-003  -5.172915800000000e-003   1.957329000000000e-002
  endloop
endfacet
facet normal   9.392459585896721e-001  -2.687841117314914e-001   2.134762997470237e-001
  outer loop
    vertex   8.591403300000002e-003  -4.217525000000000e-003   1.008037700000000e-002
    vertex   6.097796800000004e-003  -1.348438000000000e-002   9.383936400000001e-003
    vertex   9.444233000000002e-003  -6.481034200000000e-003   3.478181999999996e-003
  endloop
endfacet
facet normal  -9.592687977458121e-001  -7.908326462674838e-002   2.711995776679601e-001
  outer loop
    vertex  -1.035657200000000e-002  -3.383266700000002e-003   2.275242900000007e-003
    vertex  -8.512717700000000e-003  -1.221128900000001e-002   6.222900500000007e-003
    vertex  -7.897909700000001e-003  -6.856861500000004e-003   9.958937800000007e-003
  endloop
endfacet
facet normal   2.017827880710877e-001  -6.376018827089431e-001  -7.434699359115132e-001
  outer loop
    vertex  -2.163421599999999e-003  -4.769179000000001e-003   1.901058500000000e-002
    vertex  -1.711434300000000e-003  -4.857966700000001e-003   1.920940200000000e-002
    vertex  -2.428383800000000e-003  -5.014183500000002e-003   1.914878900000000e-002
  endloop
endfacet
facet normal  -9.929171738907159e-001  -1.187825545805893e-001  -2.488075598389078e-003
  outer loop
    vertex  -2.410458400000000e-003  -5.172915800000000e-003   1.957329000000000e-002
    vertex  -2.490464099999999e-003  -4.497353500000000e-003   1.924935200000000e-002
    vertex  -2.428383800000000e-003  -5.014183500000002e-003   1.914878900000000e-002
  endloop
endfacet
facet normal  -2.255755330947300e-001   3.993777473651397e-001   8.886017633217791e-001
  outer loop
    vertex  -2.490464099999999e-003  -4.497353500000000e-003   1.924935200000000e-002
    vertex  -2.410458400000000e-003  -5.172915800000000e-003   1.957329000000000e-002
    vertex  -1.459044999999999e-003  -4.613226700000001e-003   1.956326100000000e-002
  endloop
endfacet
facet normal  -4.505812037777876e-001  -1.093253592637528e-001   8.860161085578588e-001
  outer loop
    vertex  -1.065869999999999e-003  -4.939734500000001e-003   1.829613200000000e-002
    vertex   2.499056400000129e-005  -5.448798599999999e-003   1.878807300000000e-002
    vertex   5.526694800000114e-005  -4.646252400000000e-003   1.890249600000000e-002
  endloop
endfacet
facet normal   8.615090719436538e-001  -3.277737099848135e-001  -3.877712134771943e-001
  outer loop
    vertex  -1.711434300000000e-003  -4.857966700000001e-003   1.920940200000000e-002
    vertex  -1.459044999999999e-003  -4.613226700000001e-003   1.956326100000000e-002
    vertex  -1.629592299999998e-003  -5.096091400000001e-003   1.959251100000000e-002
  endloop
endfacet
facet normal  -3.157833507516312e-002   7.154389254888012e-002   9.969374504916720e-001
  outer loop
    vertex  -1.629592299999998e-003  -5.096091400000001e-003   1.959251100000000e-002
    vertex  -1.459044999999999e-003  -4.613226700000001e-003   1.956326100000000e-002
    vertex  -2.410458400000000e-003  -5.172915800000000e-003   1.957329000000000e-002
  endloop
endfacet
facet normal   3.723100624951414e-001  -1.447512865954732e-001   9.167509380381452e-001
  outer loop
    vertex   5.526694800000114e-005  -4.646252400000000e-003   1.890249600000000e-002
    vertex   2.499056400000129e-005  -5.448798599999999e-003   1.878807300000000e-002
    vertex   2.003445800000002e-003  -6.436357300000001e-003   1.782865300000000e-002
  endloop
endfacet
facet normal  -9.044880570044813e-001  -1.300422596850862e-001  -4.061900607255854e-001
  outer loop
    vertex  -5.091560500000001e-003  -8.203347200000004e-003  -1.205566200000000e-002
    vertex  -7.916286600000001e-003  -1.340039400000001e-002  -4.101831899999993e-003
    vertex  -9.836525700000001e-003  -3.545977900000003e-003  -2.980822699999994e-003
  endloop
endfacet
facet normal  -9.819059903324262e-001  -1.825258053050563e-001   5.044756234981205e-002
  outer loop
    vertex  -8.512717700000000e-003  -1.221128900000001e-002   6.222900500000007e-003
    vertex  -1.035657200000000e-002  -3.383266700000002e-003   2.275242900000007e-003
    vertex  -8.744304099999999e-003  -1.333854100000001e-002  -2.363216099999993e-003
  endloop
endfacet
facet normal   9.897656942521375e-001  -6.812738311529830e-002  -1.253895137220240e-001
  outer loop
    vertex   9.444233000000002e-003  -6.481034200000000e-003   3.478181999999996e-003
    vertex   7.754092600000003e-003  -1.480423100000000e-002  -5.340780100000002e-003
    vertex   8.276489600000003e-003   2.302054100000001e-003  -1.051151400000001e-002
  endloop
endfacet
facet normal  -8.154423575433169e-002  -6.203746546247655e-001   7.800550144152944e-001
  outer loop
    vertex  -3.119181400000000e-003  -4.400842800000001e-003   1.860860400000000e-002
    vertex  -4.888556399999999e-003  -5.751187400000002e-003   1.734971600000001e-002
    vertex  -2.390975599999999e-003  -4.890339900000001e-003   1.829543300000000e-002
  endloop
endfacet
facet normal  -4.469007279991744e-001  -8.476963488802884e-001   2.858157438085526e-001
  outer loop
    vertex  -2.390975599999999e-003  -4.890339900000001e-003   1.829543300000000e-002
    vertex  -2.163421599999999e-003  -4.769179000000001e-003   1.901058500000000e-002
    vertex  -3.119181400000000e-003  -4.400842800000001e-003   1.860860400000000e-002
  endloop
endfacet
facet normal  -4.552419418114913e-001  -8.302417703123640e-001   3.216416907745237e-001
  outer loop
    vertex  -2.163421599999999e-003  -4.769179000000001e-003   1.901058500000000e-002
    vertex  -2.490464099999999e-003  -4.497353500000000e-003   1.924935200000000e-002
    vertex  -3.119181400000000e-003  -4.400842800000001e-003   1.860860400000000e-002
  endloop
endfacet
facet normal  -5.312088180248994e-001   9.989585743041575e-002  -8.413310937560974e-001
  outer loop
    vertex  -2.163421599999999e-003  -4.769179000000001e-003   1.901058500000000e-002
    vertex  -2.428383800000000e-003  -5.014183500000002e-003   1.914878900000000e-002
    vertex  -2.490464099999999e-003  -4.497353500000000e-003   1.924935200000000e-002
  endloop
endfacet
facet normal  -3.720930909197972e-002  -9.973202177297348e-001   6.299087731101868e-002
  outer loop
    vertex  -1.711434300000000e-003  -4.857966700000001e-003   1.920940200000000e-002
    vertex  -2.390975599999999e-003  -4.890339900000001e-003   1.829543300000000e-002
    vertex  -1.065869999999999e-003  -4.939734500000001e-003   1.829613200000000e-002
  endloop
endfacet
facet normal  -3.717788099310422e-002  -9.962657565213481e-001   7.792526899413627e-002
  outer loop
    vertex  -1.065869999999999e-003  -4.939734500000001e-003   1.829613200000000e-002
    vertex  -2.390975599999999e-003  -4.890339900000001e-003   1.829543300000000e-002
    vertex  -1.586489599999999e-003  -4.950853500000001e-003   1.790559100000001e-002
  endloop
endfacet
facet normal  -2.910249249037380e-001  -9.237180590950155e-001   2.490972508610067e-001
  outer loop
    vertex  -2.390975599999999e-003  -4.890339900000001e-003   1.829543300000000e-002
    vertex  -1.711434300000000e-003  -4.857966700000001e-003   1.920940200000000e-002
    vertex  -2.163421599999999e-003  -4.769179000000001e-003   1.901058500000000e-002
  endloop
endfacet
facet normal   1.496788885179074e-001  -9.697882445726707e-001   1.926317497732437e-001
  outer loop
    vertex  -1.065869999999999e-003  -4.939734500000001e-003   1.829613200000000e-002
    vertex   5.526694800000114e-005  -4.646252400000000e-003   1.890249600000000e-002
    vertex  -1.711434300000000e-003  -4.857966700000001e-003   1.920940200000000e-002
  endloop
endfacet
facet normal   1.847026382909425e-001  -8.650070883509562e-001   4.665272473403526e-001
  outer loop
    vertex  -1.711434300000000e-003  -4.857966700000001e-003   1.920940200000000e-002
    vertex   5.526694800000114e-005  -4.646252400000000e-003   1.890249600000000e-002
    vertex  -1.459044999999999e-003  -4.613226700000001e-003   1.956326100000000e-002
  endloop
endfacet
facet normal  -9.887430275907906e-001  -1.162232824707302e-001  -9.423043034140197e-002
  outer loop
    vertex  -1.035657200000000e-002  -3.383266700000002e-003   2.275242900000007e-003
    vertex  -9.836525700000001e-003  -3.545977900000003e-003  -2.980822699999994e-003
    vertex  -8.744304099999999e-003  -1.333854100000001e-002  -2.363216099999993e-003
  endloop
endfacet
facet normal   8.319165979170746e-001  -3.138539995327275e-001  -4.576138558734768e-001
  outer loop
    vertex   3.486542300000002e-003  -1.232598100000000e-002  -1.479865500000000e-002
    vertex   3.824561800000001e-003  -2.310361200000001e-003  -2.105335700000001e-002
    vertex   7.754092600000003e-003  -1.480423100000000e-002  -5.340780100000002e-003
  endloop
endfacet
facet normal   1.958523502637923e-002  -4.985593874256780e-001   8.666342687539502e-001
  outer loop
    vertex   5.526694800000114e-005  -4.646252400000000e-003   1.890249600000000e-002
    vertex   2.003445800000002e-003  -6.436357300000001e-003   1.782865300000000e-002
    vertex   4.054528200000003e-003  -5.682792000000001e-003   1.821581300000000e-002
  endloop
endfacet
facet normal  -8.465009931136495e-001  -2.602825818613339e-001  -4.644233480750115e-001
  outer loop
    vertex  -1.718242800000001e-003  -2.488879000000002e-003  -2.140681400000000e-002
    vertex  -2.993494700000000e-003  -1.076174700000000e-002  -1.444595500000000e-002
    vertex  -5.091560500000001e-003  -8.203347200000004e-003  -1.205566200000000e-002
  endloop
endfacet
facet normal  -9.590673376408793e-001  -1.558606738214556e-001   2.364260819502738e-001
  outer loop
    vertex  -5.696614700000000e-003  -9.048369700000003e-003   1.744381500000001e-002
    vertex  -1.035657200000000e-002  -3.383266700000002e-003   2.275242900000007e-003
    vertex  -7.897909700000001e-003  -6.856861500000004e-003   9.958937800000007e-003
  endloop
endfacet
facet normal  -6.668406949584885e-001   2.061548233159263e-001   7.161170828648478e-001
  outer loop
    vertex  -3.119181400000000e-003  -4.400842800000001e-003   1.860860400000000e-002
    vertex  -5.136853100000001e-003  -1.930460500000001e-003   1.601859900000001e-002
    vertex  -4.888556399999999e-003  -5.751187400000002e-003   1.734971600000001e-002
  endloop
endfacet
facet normal  -3.069795971870905e-001  -2.320606155444908e-001   9.229904645357739e-001
  outer loop
    vertex  -2.490464099999999e-003  -4.497353500000000e-003   1.924935200000000e-002
    vertex  -1.459044999999999e-003  -4.613226700000001e-003   1.956326100000000e-002
    vertex  -5.926521799999991e-004  -1.583596500000000e-003   2.061313400000000e-002
  endloop
endfacet
facet normal   3.600202765071958e-001  -3.957288252156149e-001   8.448574420558487e-001
  outer loop
    vertex  -5.926521799999991e-004  -1.583596500000000e-003   2.061313400000000e-002
    vertex  -1.459044999999999e-003  -4.613226700000001e-003   1.956326100000000e-002
    vertex   5.526694800000114e-005  -4.646252400000000e-003   1.890249600000000e-002
  endloop
endfacet
facet normal   4.189461915443896e-001  -3.484745233267209e-001   8.384805276109079e-001
  outer loop
    vertex   6.564132400000002e-003  -2.737493999999999e-003   1.818596400000000e-002
    vertex   3.535457900000002e-003  -8.402264199999991e-004   2.048774800000000e-002
    vertex   4.054528200000003e-003  -5.682792000000001e-003   1.821581300000000e-002
  endloop
endfacet
facet normal  -6.986423898073517e-001   1.253491628866406e-001   7.044049960980480e-001
  outer loop
    vertex  -3.119181400000000e-003  -4.400842800000001e-003   1.860860400000000e-002
    vertex  -2.490464099999999e-003  -4.497353500000000e-003   1.924935200000000e-002
    vertex  -5.926521799999991e-004  -1.583596500000000e-003   2.061313400000000e-002
  endloop
endfacet
facet normal   4.670437854062360e-002  -4.201667645870738e-001   9.062442225810682e-001
  outer loop
    vertex   3.535457900000002e-003  -8.402264199999991e-004   2.048774800000000e-002
    vertex   5.526694800000114e-005  -4.646252400000000e-003   1.890249600000000e-002
    vertex   4.054528200000003e-003  -5.682792000000001e-003   1.821581300000000e-002
  endloop
endfacet
facet normal  -7.089507947722891e-001   1.446559337083253e-001   6.902633058729922e-001
  outer loop
    vertex  -5.136853100000001e-003  -1.930460500000001e-003   1.601859900000001e-002
    vertex  -3.119181400000000e-003  -4.400842800000001e-003   1.860860400000000e-002
    vertex  -5.926521799999991e-004  -1.583596500000000e-003   2.061313400000000e-002
  endloop
endfacet
facet normal   9.941312730964056e-001  -3.228443404431552e-002  -1.032507974311002e-001
  outer loop
    vertex   8.276489600000003e-003   2.302054100000001e-003  -1.051151400000001e-002
    vertex   9.822147900000000e-003   2.610225200000002e-003   4.274213199999994e-003
    vertex   9.444233000000002e-003  -6.481034200000000e-003   3.478181999999996e-003
  endloop
endfacet
facet normal   1.106911193935238e-001  -4.666895501096650e-001   8.774670021749236e-001
  outer loop
    vertex   5.526694800000114e-005  -4.646252400000000e-003   1.890249600000000e-002
    vertex   3.535457900000002e-003  -8.402264199999991e-004   2.048774800000000e-002
    vertex  -5.926521799999991e-004  -1.583596500000000e-003   2.061313400000000e-002
  endloop
endfacet
facet normal  -9.543350595166851e-001   1.399736704709869e-002   2.984102342297159e-001
  outer loop
    vertex  -5.696614700000000e-003  -9.048369700000003e-003   1.744381500000001e-002
    vertex  -7.949922200000003e-003   2.555275199999990e-005   9.811967600000006e-003
    vertex  -1.035657200000000e-002  -3.383266700000002e-003   2.275242900000007e-003
  endloop
endfacet
facet normal  -8.340298658832445e-001   2.188540511231891e-001   5.064554147422512e-001
  outer loop
    vertex  -5.696614700000000e-003  -9.048369700000003e-003   1.744381500000001e-002
    vertex  -4.888556399999999e-003  -5.751187400000002e-003   1.734971600000001e-002
    vertex  -7.949922200000003e-003   2.555275199999990e-005   9.811967600000006e-003
  endloop
endfacet
facet normal   9.325163862519724e-001  -1.302845387461977e-001  -3.368072569515873e-001
  outer loop
    vertex   8.276489600000003e-003   2.302054100000001e-003  -1.051151400000001e-002
    vertex   7.754092600000003e-003  -1.480423100000000e-002  -5.340780100000002e-003
    vertex   3.824561800000001e-003  -2.310361200000001e-003  -2.105335700000001e-002
  endloop
endfacet
facet normal  -6.428127000167474e-001   4.764801318881818e-001   5.997987300861849e-001
  outer loop
    vertex  -5.136853100000001e-003  -1.930460500000001e-003   1.601859900000001e-002
    vertex  -5.926521799999991e-004  -1.583596500000000e-003   2.061313400000000e-002
    vertex   3.134131500000010e-004   7.621535300000020e-004   1.972071300000000e-002
  endloop
endfacet
facet normal   9.878087351575499e-001  -5.385140170130474e-002   1.460613887420156e-001
  outer loop
    vertex   9.444233000000002e-003  -6.481034200000000e-003   3.478181999999996e-003
    vertex   9.822147900000000e-003   2.610225200000002e-003   4.274213199999994e-003
    vertex   8.591403300000002e-003  -4.217525000000000e-003   1.008037700000000e-002
  endloop
endfacet
facet normal  -3.807488357406413e-002   3.681342565863714e-001   9.289927192225033e-001
  outer loop
    vertex   3.134131500000010e-004   7.621535300000020e-004   1.972071300000000e-002
    vertex  -5.926521799999991e-004  -1.583596500000000e-003   2.061313400000000e-002
    vertex   3.535457900000002e-003  -8.402264199999991e-004   2.048774800000000e-002
  endloop
endfacet
facet normal   5.373927221327900e-001  -1.491514939382239e-001   8.300378871200433e-001
  outer loop
    vertex   6.564132400000002e-003  -2.737493999999999e-003   1.818596400000000e-002
    vertex   6.666697600000002e-003   3.232925400000003e-003   1.919239900000000e-002
    vertex   3.535457900000002e-003  -8.402264199999991e-004   2.048774800000000e-002
  endloop
endfacet
facet normal   9.658255742868165e-001  -5.913180520283293e-002   2.523576621919676e-001
  outer loop
    vertex   6.666697600000002e-003   3.232925400000003e-003   1.919239900000000e-002
    vertex   6.564132400000002e-003  -2.737493999999999e-003   1.818596400000000e-002
    vertex   8.591403300000002e-003  -4.217525000000000e-003   1.008037700000000e-002
  endloop
endfacet
facet normal  -9.945374553867973e-001   3.189188225316379e-002  -9.938892130969441e-002
  outer loop
    vertex  -1.035657200000000e-002  -3.383266700000002e-003   2.275242900000007e-003
    vertex  -9.809487500000002e-003   4.396596000000001e-003  -7.027707199999953e-004
    vertex  -9.836525700000001e-003  -3.545977900000003e-003  -2.980822699999994e-003
  endloop
endfacet
facet normal  -8.954242350852038e-001   9.346265934258602e-002   4.352932006483554e-001
  outer loop
    vertex  -4.888556399999999e-003  -5.751187400000002e-003   1.734971600000001e-002
    vertex  -5.136853100000001e-003  -1.930460500000001e-003   1.601859900000001e-002
    vertex  -7.949922200000003e-003   2.555275199999990e-005   9.811967600000006e-003
  endloop
endfacet
facet normal  -9.523958780785909e-001   8.147829024161976e-002  -2.937743685861855e-001
  outer loop
    vertex  -1.718242800000001e-003  -2.488879000000002e-003  -2.140681400000000e-002
    vertex  -5.091560500000001e-003  -8.203347200000004e-003  -1.205566200000000e-002
    vertex  -8.364603900000016e-004   4.940140100000000e-003  -2.220505300000000e-002
  endloop
endfacet
facet normal  -9.591438816831295e-001   1.574296272505872e-001   2.350721733714138e-001
  outer loop
    vertex  -1.035657200000000e-002  -3.383266700000002e-003   2.275242900000007e-003
    vertex  -7.949922200000003e-003   2.555275199999990e-005   9.811967600000006e-003
    vertex  -9.809487500000002e-003   4.396596000000001e-003  -7.027707199999953e-004
  endloop
endfacet
facet normal  -2.059245385075369e-001   5.365068961769461e-002   9.770960484742550e-001
  outer loop
    vertex   3.535457900000002e-003  -8.402264199999991e-004   2.048774800000000e-002
    vertex   2.595411800000000e-003   6.757108500000003e-003   1.987247500000000e-002
    vertex   3.134131500000010e-004   7.621535300000020e-004   1.972071300000000e-002
  endloop
endfacet
facet normal  -5.957679739077822e-001   1.125513748080234e-001   7.952312300800565e-001
  outer loop
    vertex  -5.136853100000001e-003  -1.930460500000001e-003   1.601859900000001e-002
    vertex   3.134131500000010e-004   7.621535300000020e-004   1.972071300000000e-002
    vertex  -3.298265400000002e-003   1.104256900000001e-002   1.555991400000000e-002
  endloop
endfacet
facet normal   9.697102573048636e-001   3.121238525909873e-002   2.422556581055908e-001
  outer loop
    vertex   8.591403300000002e-003  -4.217525000000000e-003   1.008037700000000e-002
    vertex   9.822147900000000e-003   2.610225200000002e-003   4.274213199999994e-003
    vertex   8.080037300000002e-003   9.469234400000004e-003   1.036388100000000e-002
  endloop
endfacet
facet normal   9.293210382898411e-001  -6.701259120864563e-002  -3.631414606064621e-001
  outer loop
    vertex   3.824561800000001e-003  -2.310361200000001e-003  -2.105335700000001e-002
    vertex   6.093941600000001e-003   5.399290900000002e-003  -1.666845800000000e-002
    vertex   8.276489600000003e-003   2.302054100000001e-003  -1.051151400000001e-002
  endloop
endfacet
facet normal  -8.419197358711564e-001   1.514144901905426e-001  -5.179235566287561e-001
  outer loop
    vertex  -9.809487500000002e-003   4.396596000000001e-003  -7.027707199999953e-004
    vertex  -5.091560500000001e-003  -8.203347200000004e-003  -1.205566200000000e-002
    vertex  -9.836525700000001e-003  -3.545977900000003e-003  -2.980822699999994e-003
  endloop
endfacet
facet normal   7.890561618601643e-001   1.113474491863119e-001  -6.041457762744089e-001
  outer loop
    vertex   3.824561800000001e-003  -2.310361200000001e-003  -2.105335700000001e-002
    vertex   3.105475099999999e-003   5.978518600000001e-003  -2.046484700000000e-002
    vertex   6.093941600000001e-003   5.399290900000002e-003  -1.666845800000000e-002
  endloop
endfacet
facet normal   2.551519737322053e-001   1.093731360700224e-001   9.606950543261730e-001
  outer loop
    vertex   3.535457900000002e-003  -8.402264199999991e-004   2.048774800000000e-002
    vertex   6.666697600000002e-003   3.232925400000003e-003   1.919239900000000e-002
    vertex   2.595411800000000e-003   6.757108500000003e-003   1.987247500000000e-002
  endloop
endfacet
facet normal  -9.073560488518540e-001   2.631194769518111e-002   4.195386537858437e-001
  outer loop
    vertex  -5.136853100000001e-003  -1.930460500000001e-003   1.601859900000001e-002
    vertex  -7.554207900000003e-003   1.595580600000000e-002   9.668709700000003e-003
    vertex  -7.949922200000003e-003   2.555275199999990e-005   9.811967600000006e-003
  endloop
endfacet
facet normal  -7.495445318489293e-001   1.291829110383408e-001   6.492262858749863e-001
  outer loop
    vertex  -5.136853100000001e-003  -1.930460500000001e-003   1.601859900000001e-002
    vertex  -3.298265400000002e-003   1.104256900000001e-002   1.555991400000000e-002
    vertex  -7.554207900000003e-003   1.595580600000000e-002   9.668709700000003e-003
  endloop
endfacet
facet normal   6.689168734887684e-002  -1.144402598577127e-001  -9.911755288985494e-001
  outer loop
    vertex  -1.718242800000001e-003  -2.488879000000002e-003  -2.140681400000000e-002
    vertex  -8.364603900000016e-004   4.940140100000000e-003  -2.220505300000000e-002
    vertex   3.824561800000001e-003  -2.310361200000001e-003  -2.105335700000001e-002
  endloop
endfacet
facet normal  -9.869213784886916e-001  -5.883683422740178e-002   1.500813766597243e-001
  outer loop
    vertex  -7.949922200000003e-003   2.555275199999990e-005   9.811967600000006e-003
    vertex  -9.706481400000003e-003   1.452692500000001e-002   3.946010000000003e-003
    vertex  -9.809487500000002e-003   4.396596000000001e-003  -7.027707199999953e-004
  endloop
endfacet
facet normal  -4.993134424052350e-001   1.685508637079801e-001   8.498686325407756e-001
  outer loop
    vertex  -3.298265400000002e-003   1.104256900000001e-002   1.555991400000000e-002
    vertex   3.134131500000010e-004   7.621535300000020e-004   1.972071300000000e-002
    vertex   2.595411800000000e-003   6.757108500000003e-003   1.987247500000000e-002
  endloop
endfacet
facet normal   9.829915011015875e-001   3.298437922421051e-002   1.806647156730976e-001
  outer loop
    vertex   6.666697600000002e-003   3.232925400000003e-003   1.919239900000000e-002
    vertex   8.591403300000002e-003  -4.217525000000000e-003   1.008037700000000e-002
    vertex   8.080037300000002e-003   9.469234400000004e-003   1.036388100000000e-002
  endloop
endfacet
facet normal   9.537251654633553e-001  -2.856923951687440e-001  -9.374520843564048e-002
  outer loop
    vertex   8.276489600000003e-003   2.302054100000001e-003  -1.051151400000001e-002
    vertex   9.738980800000002e-003   6.828616800000004e-003  -9.427617300000007e-003
    vertex   9.822147900000000e-003   2.610225200000002e-003   4.274213199999994e-003
  endloop
endfacet
facet normal   3.986547745641256e-001   2.928302388911450e-001   8.690942537539763e-001
  outer loop
    vertex   6.666697600000002e-003   3.232925400000003e-003   1.919239900000000e-002
    vertex   6.197815800000002e-003   7.061011200000004e-003   1.811765100000000e-002
    vertex   2.595411800000000e-003   6.757108500000003e-003   1.987247500000000e-002
  endloop
endfacet
facet normal  -9.378203920026724e-001   2.640840819572565e-002   3.461148773464118e-001
  outer loop
    vertex  -7.949922200000003e-003   2.555275199999990e-005   9.811967600000006e-003
    vertex  -7.554207900000003e-003   1.595580600000000e-002   9.668709700000003e-003
    vertex  -9.706481400000003e-003   1.452692500000001e-002   3.946010000000003e-003
  endloop
endfacet
facet normal   9.373076968488696e-001   1.957553971774556e-001   2.883298560741919e-001
  outer loop
    vertex   6.666697600000002e-003   3.232925400000003e-003   1.919239900000000e-002
    vertex   8.080037300000002e-003   9.469234400000004e-003   1.036388100000000e-002
    vertex   6.197815800000002e-003   7.061011200000004e-003   1.811765100000000e-002
  endloop
endfacet
facet normal   8.915364261546295e-001  -1.895402337380204e-001  -4.113846139976157e-001
  outer loop
    vertex   8.276489600000003e-003   2.302054100000001e-003  -1.051151400000001e-002
    vertex   6.093941600000001e-003   5.399290900000002e-003  -1.666845800000000e-002
    vertex   9.738980800000002e-003   6.828616800000004e-003  -9.427617300000007e-003
  endloop
endfacet
facet normal   3.801230464945586e-001   9.827554371483215e-002  -9.197001614826704e-001
  outer loop
    vertex   3.824561800000001e-003  -2.310361200000001e-003  -2.105335700000001e-002
    vertex  -8.364603900000016e-004   4.940140100000000e-003  -2.220505300000000e-002
    vertex   3.105475099999999e-003   5.978518600000001e-003  -2.046484700000000e-002
  endloop
endfacet
facet normal   9.980660064644268e-001   6.085653293487903e-002   1.267789964059119e-002
  outer loop
    vertex   9.822147900000000e-003   2.610225200000002e-003   4.274213199999994e-003
    vertex   9.738980800000002e-003   6.828616800000004e-003  -9.427617300000007e-003
    vertex   9.582136800000000e-003   7.448411100000003e-003  -5.523418800000698e-005
  endloop
endfacet
facet normal   9.823253520256235e-001   1.495101732960663e-001   1.126215381208896e-001
  outer loop
    vertex   9.822147900000000e-003   2.610225200000002e-003   4.274213199999994e-003
    vertex   9.582136800000000e-003   7.448411100000003e-003  -5.523418800000698e-005
    vertex   8.080037300000002e-003   9.469234400000004e-003   1.036388100000000e-002
  endloop
endfacet
facet normal  -9.228791334726064e-001   1.410814926675104e-003  -3.850871519566628e-001
  outer loop
    vertex  -5.091560500000001e-003  -8.203347200000004e-003  -1.205566200000000e-002
    vertex  -9.809487500000002e-003   4.396596000000001e-003  -7.027707199999953e-004
    vertex  -8.364603900000016e-004   4.940140100000000e-003  -2.220505300000000e-002
  endloop
endfacet
facet normal   3.270936501849179e-001   5.519306805574293e-001   7.670607980258927e-001
  outer loop
    vertex   6.197815800000002e-003   7.061011200000004e-003   1.811765100000000e-002
    vertex   2.213424500000001e-003   1.283684800000001e-002   1.566075000000000e-002
    vertex   2.595411800000000e-003   6.757108500000003e-003   1.987247500000000e-002
  endloop
endfacet
facet normal  -1.940233712839566e-001   5.503665503843335e-001   8.120662482911460e-001
  outer loop
    vertex  -3.298265400000002e-003   1.104256900000001e-002   1.555991400000000e-002
    vertex   2.595411800000000e-003   6.757108500000003e-003   1.987247500000000e-002
    vertex   2.213424500000001e-003   1.283684800000001e-002   1.566075000000000e-002
  endloop
endfacet
facet normal   8.316970793944567e-001   5.547626325905197e-001  -2.276817094030596e-002
  outer loop
    vertex   9.582136800000000e-003   7.448411100000003e-003  -5.523418800000698e-005
    vertex   9.738980800000002e-003   6.828616800000004e-003  -9.427617300000007e-003
    vertex   7.123046600000000e-003   1.074298900000001e-002  -9.608457800000008e-003
  endloop
endfacet
facet normal  -9.197157308739918e-001  -7.341929230876158e-002  -3.856586338976475e-001
  outer loop
    vertex  -4.779998700000003e-003   1.574501400000001e-002  -1.485749800000000e-002
    vertex  -8.364603900000016e-004   4.940140100000000e-003  -2.220505300000000e-002
    vertex  -9.809487500000002e-003   4.396596000000001e-003  -7.027707199999953e-004
  endloop
endfacet
facet normal   7.144252947032307e-001   5.038614398136718e-001  -4.855101932576651e-001
  outer loop
    vertex   6.093941600000001e-003   5.399290900000002e-003  -1.666845800000000e-002
    vertex   3.105475099999999e-003   5.978518600000001e-003  -2.046484700000000e-002
    vertex   7.123046600000000e-003   1.074298900000001e-002  -9.608457800000008e-003
  endloop
endfacet
facet normal   8.025564135313861e-001   5.285672298259330e-001  -2.766222815569602e-001
  outer loop
    vertex   6.015153600000001e-003   1.117259200000001e-002  -3.287892300000006e-003
    vertex   7.503539800000000e-003   1.147866200000001e-002   1.615156199999994e-003
    vertex   9.582136800000000e-003   7.448411100000003e-003  -5.523418800000698e-005
  endloop
endfacet
facet normal   6.885351540130186e-001   7.216558900880703e-001   7.163880226151267e-002
  outer loop
    vertex   9.582136800000000e-003   7.448411100000003e-003  -5.523418800000698e-005
    vertex   7.123046600000000e-003   1.074298900000001e-002  -9.608457800000008e-003
    vertex   6.015153600000001e-003   1.117259200000001e-002  -3.287892300000006e-003
  endloop
endfacet
facet normal   8.950799554052710e-001   4.438315031434440e-001   4.295893677838307e-002
  outer loop
    vertex   9.582136800000000e-003   7.448411100000003e-003  -5.523418800000698e-005
    vertex   7.503539800000000e-003   1.147866200000001e-002   1.615156199999994e-003
    vertex   8.080037300000002e-003   9.469234400000004e-003   1.036388100000000e-002
  endloop
endfacet
facet normal   7.443334369208430e-001   4.757806711273478e-001  -4.686155008780822e-001
  outer loop
    vertex   6.093941600000001e-003   5.399290900000002e-003  -1.666845800000000e-002
    vertex   7.123046600000000e-003   1.074298900000001e-002  -9.608457800000008e-003
    vertex   9.738980800000002e-003   6.828616800000004e-003  -9.427617300000007e-003
  endloop
endfacet
facet normal   7.569474627021522e-001   5.490976910412060e-001   3.542912141191062e-001
  outer loop
    vertex   6.197815800000002e-003   7.061011200000004e-003   1.811765100000000e-002
    vertex   8.080037300000002e-003   9.469234400000004e-003   1.036388100000000e-002
    vertex   4.027783900000001e-003   1.326841900000001e-002   1.313340900000000e-002
  endloop
endfacet
facet normal   2.366523976972367e-001   4.988685801843098e-001  -8.337420358654346e-001
  outer loop
    vertex  -8.521260500000022e-004   1.389659700000000e-002  -1.685041400000000e-002
    vertex   3.105475099999999e-003   5.978518600000001e-003  -2.046484700000000e-002
    vertex  -8.364603900000016e-004   4.940140100000000e-003  -2.220505300000000e-002
  endloop
endfacet
facet normal   5.808706475396753e-001   6.233694935721309e-001   5.234498689563917e-001
  outer loop
    vertex   2.213424500000001e-003   1.283684800000001e-002   1.566075000000000e-002
    vertex   6.197815800000002e-003   7.061011200000004e-003   1.811765100000000e-002
    vertex   4.027783900000001e-003   1.326841900000001e-002   1.313340900000000e-002
  endloop
endfacet
facet normal  -1.906387994789816e-001   5.034832103021429e-001  -8.427108074998567e-001
  outer loop
    vertex  -4.779998700000003e-003   1.574501400000001e-002  -1.485749800000000e-002
    vertex  -8.521260500000022e-004   1.389659700000000e-002  -1.685041400000000e-002
    vertex  -8.364603900000016e-004   4.940140100000000e-003  -2.220505300000000e-002
  endloop
endfacet
facet normal   6.677591724417066e-001   5.584324436828885e-001  -4.921898957336737e-001
  outer loop
    vertex   3.105475099999999e-003   5.978518600000001e-003  -2.046484700000000e-002
    vertex  -8.521260500000022e-004   1.389659700000000e-002  -1.685041400000000e-002
    vertex   7.123046600000000e-003   1.074298900000001e-002  -9.608457800000008e-003
  endloop
endfacet
facet normal   7.188581507568186e-001   6.863545224718843e-001   1.102743332461316e-001
  outer loop
    vertex   4.027783900000001e-003   1.326841900000001e-002   1.313340900000000e-002
    vertex   8.080037300000002e-003   9.469234400000004e-003   1.036388100000000e-002
    vertex   7.503539800000000e-003   1.147866200000001e-002   1.615156199999994e-003
  endloop
endfacet
facet normal   6.033353753578780e-002   6.326707771805012e-001   7.720670644123076e-001
  outer loop
    vertex  -3.298265400000002e-003   1.104256900000001e-002   1.555991400000000e-002
    vertex   1.497982199999996e-004   1.434840300000000e-002   1.258149600000000e-002
    vertex  -5.416235900000003e-003   1.571701800000001e-002   1.189494400000000e-002
  endloop
endfacet
facet normal  -2.652687006778740e-001   7.832574610705111e-001   5.622635201736365e-001
  outer loop
    vertex   1.497982199999996e-004   1.434840300000000e-002   1.258149600000000e-002
    vertex  -3.298265400000002e-003   1.104256900000001e-002   1.555991400000000e-002
    vertex   2.213424500000001e-003   1.283684800000001e-002   1.566075000000000e-002
  endloop
endfacet
facet normal  -6.903697381042575e-001   2.260247037310826e-001   6.872426485697284e-001
  outer loop
    vertex  -7.554207900000003e-003   1.595580600000000e-002   9.668709700000003e-003
    vertex  -3.298265400000002e-003   1.104256900000001e-002   1.555991400000000e-002
    vertex  -5.416235900000003e-003   1.571701800000001e-002   1.189494400000000e-002
  endloop
endfacet
facet normal   3.119954115556409e-001   9.376436801073723e-001  -1.532422667638716e-001
  outer loop
    vertex   6.015153600000001e-003   1.117259200000001e-002  -3.287892300000006e-003
    vertex   9.064974099999988e-004   1.483850500000001e-002   8.741705699999996e-003
    vertex   7.503539800000000e-003   1.147866200000001e-002   1.615156199999994e-003
  endloop
endfacet
facet normal   2.135509011320674e-001   9.259645731037631e-001   3.114251466764489e-001
  outer loop
    vertex   1.497982199999996e-004   1.434840300000000e-002   1.258149600000000e-002
    vertex   2.213424500000001e-003   1.283684800000001e-002   1.566075000000000e-002
    vertex   4.027783900000001e-003   1.326841900000001e-002   1.313340900000000e-002
  endloop
endfacet
facet normal  -9.975919264819729e-001   3.704954626486331e-002  -5.863172639069825e-002
  outer loop
    vertex  -9.809487500000002e-003   4.396596000000001e-003  -7.027707199999953e-004
    vertex  -9.706481400000003e-003   1.452692500000001e-002   3.946010000000003e-003
    vertex  -9.301463100000004e-003   1.521890300000000e-002  -2.507927799999998e-003
  endloop
endfacet
facet normal   4.518965643502200e-001   8.920675076226208e-001  -2.248771316265362e-003
  outer loop
    vertex   4.027783900000001e-003   1.326841900000001e-002   1.313340900000000e-002
    vertex   7.503539800000000e-003   1.147866200000001e-002   1.615156199999994e-003
    vertex   9.064974099999988e-004   1.483850500000001e-002   8.741705699999996e-003
  endloop
endfacet
facet normal   2.419188362388706e-001   9.553566789735905e-001   1.696139517061681e-001
  outer loop
    vertex   4.027783900000001e-003   1.326841900000001e-002   1.313340900000000e-002
    vertex   9.064974099999988e-004   1.483850500000001e-002   8.741705699999996e-003
    vertex   1.497982199999996e-004   1.434840300000000e-002   1.258149600000000e-002
  endloop
endfacet
facet normal  -9.387735394183617e-001  -1.335686176346951e-002  -3.442758137478630e-001
  outer loop
    vertex  -9.809487500000002e-003   4.396596000000001e-003  -7.027707199999953e-004
    vertex  -9.301463100000004e-003   1.521890300000000e-002  -2.507927799999998e-003
    vertex  -4.779998700000003e-003   1.574501400000001e-002  -1.485749800000000e-002
  endloop
endfacet
facet normal   5.098859236821455e-001   8.596853444143295e-001   3.094274438411455e-002
  outer loop
    vertex   7.123046600000000e-003   1.074298900000001e-002  -9.608457800000008e-003
    vertex   3.760657299999985e-004   1.485741500000001e-002  -1.274073200000001e-002
    vertex   6.015153600000001e-003   1.117259200000001e-002  -3.287892300000006e-003
  endloop
endfacet
facet normal   4.372135381818513e-001   8.772615815934425e-001   1.981323787034287e-001
  outer loop
    vertex   1.497982199999996e-004   1.434840300000000e-002   1.258149600000000e-002
    vertex   9.064974099999988e-004   1.483850500000001e-002   8.741705699999996e-003
    vertex  -3.318278800000003e-003   1.728358100000001e-002   7.238458799999999e-003
  endloop
endfacet
facet normal   5.120881215236224e-001   8.578083235090165e-001  -4.393900218550816e-002
  outer loop
    vertex   9.064974099999988e-004   1.483850500000001e-002   8.741705699999996e-003
    vertex   6.015153600000001e-003   1.117259200000001e-002  -3.287892300000006e-003
    vertex  -3.318278800000003e-003   1.728358100000001e-002   7.238458799999999e-003
  endloop
endfacet
facet normal   6.005325585764767e-001   7.199962517121998e-001  -3.478017303148061e-001
  outer loop
    vertex  -8.521260500000022e-004   1.389659700000000e-002  -1.685041400000000e-002
    vertex   3.760657299999985e-004   1.485741500000001e-002  -1.274073200000001e-002
    vertex   7.123046600000000e-003   1.074298900000001e-002  -9.608457800000008e-003
  endloop
endfacet
facet normal   5.474681654376553e-001   8.368264202355891e-001  -3.875925917660713e-004
  outer loop
    vertex   6.015153600000001e-003   1.117259200000001e-002  -3.287892300000006e-003
    vertex   3.760657299999985e-004   1.485741500000001e-002  -1.274073200000001e-002
    vertex  -3.318278800000003e-003   1.728358100000001e-002   7.238458799999999e-003
  endloop
endfacet
facet normal  -7.101707766188744e-001  -2.604606332561090e-001   6.540777679759279e-001
  outer loop
    vertex  -5.416235900000003e-003   1.571701800000001e-002   1.189494400000000e-002
    vertex  -6.829937500000003e-003   1.730107000000001e-002   1.099079100000000e-002
    vertex  -7.554207900000003e-003   1.595580600000000e-002   9.668709700000003e-003
  endloop
endfacet
facet normal   1.755207755512810e-001   9.064785623737819e-001   3.840430617868763e-001
  outer loop
    vertex  -5.416235900000003e-003   1.571701800000001e-002   1.189494400000000e-002
    vertex   1.497982199999996e-004   1.434840300000000e-002   1.258149600000000e-002
    vertex  -3.318278800000003e-003   1.728358100000001e-002   7.238458799999999e-003
  endloop
endfacet
facet normal   3.055764874724867e-001   9.503440023520533e-001  -5.890065786948073e-002
  outer loop
    vertex  -3.318278800000003e-003   1.728358100000001e-002   7.238458799999999e-003
    vertex   3.760657299999985e-004   1.485741500000001e-002  -1.274073200000001e-002
    vertex  -6.969543200000004e-003   1.732958300000000e-002  -1.096206500000000e-002
  endloop
endfacet
facet normal  -9.129070054620541e-001  -1.481530466953053e-001   3.803307430818653e-001
  outer loop
    vertex  -9.706481400000003e-003   1.452692500000001e-002   3.946010000000003e-003
    vertex  -7.554207900000003e-003   1.595580600000000e-002   9.668709700000003e-003
    vertex  -1.050190700000001e-002   1.813770500000000e-002   3.443285600000003e-003
  endloop
endfacet
facet normal   5.071528326576857e-001   7.216017876222687e-001   4.712609303004351e-001
  outer loop
    vertex  -5.416235900000003e-003   1.571701800000001e-002   1.189494400000000e-002
    vertex  -3.318278800000003e-003   1.728358100000001e-002   7.238458799999999e-003
    vertex  -6.829937500000003e-003   1.730107000000001e-002   1.099079100000000e-002
  endloop
endfacet
facet normal  -8.954575935725758e-001  -3.494862160316816e-001  -2.757083294299766e-001
  outer loop
    vertex  -9.301463100000004e-003   1.521890300000000e-002  -2.507927799999998e-003
    vertex  -1.036318600000000e-002   1.719293200000001e-002  -1.561884899999997e-003
    vertex  -8.024368400000004e-003   1.666568400000000e-002  -8.489662800000002e-003
  endloop
endfacet
facet normal  -8.957309764287671e-001  -4.325973748713110e-001  -1.025940013861330e-001
  outer loop
    vertex  -9.706481400000003e-003   1.452692500000001e-002   3.946010000000003e-003
    vertex  -1.036318600000000e-002   1.719293200000001e-002  -1.561884899999997e-003
    vertex  -9.301463100000004e-003   1.521890300000000e-002  -2.507927799999998e-003
  endloop
endfacet
facet normal  -9.768840583714915e-001  -2.133619401663718e-001   1.319920407016112e-002
  outer loop
    vertex  -1.036318600000000e-002   1.719293200000001e-002  -1.561884899999997e-003
    vertex  -9.706481400000003e-003   1.452692500000001e-002   3.946010000000003e-003
    vertex  -1.050190700000001e-002   1.813770500000000e-002   3.443285600000003e-003
  endloop
endfacet
facet normal  -8.960251670267211e-001   4.868619035225083e-002   4.413259055660807e-001
  outer loop
    vertex  -6.829937500000003e-003   1.730107000000001e-002   1.099079100000000e-002
    vertex  -1.050190700000001e-002   1.813770500000000e-002   3.443285600000003e-003
    vertex  -7.554207900000003e-003   1.595580600000000e-002   9.668709700000003e-003
  endloop
endfacet
facet normal  -7.247354666797520e-001  -6.241270987842768e-001  -2.919312725618888e-001
  outer loop
    vertex  -4.779998700000003e-003   1.574501400000001e-002  -1.485749800000000e-002
    vertex  -9.301463100000004e-003   1.521890300000000e-002  -2.507927799999998e-003
    vertex  -7.388218800000004e-003   1.712402000000000e-002  -1.133065900000000e-002
  endloop
endfacet
facet normal  -9.637432562469653e-001  -1.246754249254344e-001  -2.359130654672575e-001
  outer loop
    vertex  -7.388218800000004e-003   1.712402000000000e-002  -1.133065900000000e-002
    vertex  -9.301463100000004e-003   1.521890300000000e-002  -2.507927799999998e-003
    vertex  -8.024368400000004e-003   1.666568400000000e-002  -8.489662800000002e-003
  endloop
endfacet
facet normal   2.790993897235420e-001   9.132069272892888e-001  -2.969118364208506e-001
  outer loop
    vertex   3.760657299999985e-004   1.485741500000001e-002  -1.274073200000001e-002
    vertex  -8.521260500000022e-004   1.389659700000000e-002  -1.685041400000000e-002
    vertex  -4.779998700000003e-003   1.574501400000001e-002  -1.485749800000000e-002
  endloop
endfacet
facet normal   2.581534355749098e-001   9.368402241932609e-001  -2.359813510309481e-001
  outer loop
    vertex   3.760657299999985e-004   1.485741500000001e-002  -1.274073200000001e-002
    vertex  -4.779998700000003e-003   1.574501400000001e-002  -1.485749800000000e-002
    vertex  -6.969543200000004e-003   1.732958300000000e-002  -1.096206500000000e-002
  endloop
endfacet
facet normal  -8.058620032470770e-002   9.066561901871085e-001  -4.141019404840114e-001
  outer loop
    vertex  -4.779998700000003e-003   1.574501400000001e-002  -1.485749800000000e-002
    vertex  -7.388218800000004e-003   1.712402000000000e-002  -1.133065900000000e-002
    vertex  -6.969543200000004e-003   1.732958300000000e-002  -1.096206500000000e-002
  endloop
endfacet
facet normal  -8.830853876060004e-001  -3.901367012192322e-001  -2.606790220914134e-001
  outer loop
    vertex  -7.624891100000004e-003   1.700330000000000e-002  -1.034822800000000e-002
    vertex  -7.388218800000004e-003   1.712402000000000e-002  -1.133065900000000e-002
    vertex  -8.024368400000004e-003   1.666568400000000e-002  -8.489662800000002e-003
  endloop
endfacet
facet normal  -9.782695308200508e-001   2.346755786564791e-002  -2.060048513917577e-001
  outer loop
    vertex  -7.624891100000004e-003   1.700330000000000e-002  -1.034822800000000e-002
    vertex  -8.024368400000004e-003   1.666568400000000e-002  -8.489662800000002e-003
    vertex  -1.050190700000001e-002   1.813770500000000e-002   3.443285600000003e-003
  endloop
endfacet
facet normal  -3.358432161446763e-001   9.238329046324358e-001  -1.836902242581159e-001
  outer loop
    vertex  -8.024368400000004e-003   1.666568400000000e-002  -8.489662800000002e-003
    vertex  -1.036318600000000e-002   1.719293200000001e-002  -1.561884899999997e-003
    vertex  -1.050190700000001e-002   1.813770500000000e-002   3.443285600000003e-003
  endloop
endfacet
facet normal   1.303416735377840e-001   9.911871951454765e-001  -2.364301839894599e-002
  outer loop
    vertex  -3.318278800000003e-003   1.728358100000001e-002   7.238458799999999e-003
    vertex  -6.969543200000004e-003   1.732958300000000e-002  -1.096206500000000e-002
    vertex  -1.050190700000001e-002   1.813770500000000e-002   3.443285600000003e-003
  endloop
endfacet
facet normal   8.073897782248624e-002   9.942085497183913e-001   7.092656150577857e-002
  outer loop
    vertex  -1.050190700000001e-002   1.813770500000000e-002   3.443285600000003e-003
    vertex  -6.829937500000003e-003   1.730107000000001e-002   1.099079100000000e-002
    vertex  -3.318278800000003e-003   1.728358100000001e-002   7.238458799999999e-003
  endloop
endfacet
facet normal  -3.854170602925212e-001  -9.000356465873211e-001  -2.034441557470113e-001
  outer loop
    vertex  -7.388218800000004e-003   1.712402000000000e-002  -1.133065900000000e-002
    vertex  -7.624891100000004e-003   1.700330000000000e-002  -1.034822800000000e-002
    vertex  -7.654293900000005e-003   1.720763200000001e-002  -1.119648900000000e-002
  endloop
endfacet
facet normal  -2.478354093852612e-001   9.398709274224024e-001   2.349898926358183e-001
  outer loop
    vertex  -7.654293900000005e-003   1.720763200000001e-002  -1.119648900000000e-002
    vertex  -7.624891100000004e-003   1.700330000000000e-002  -1.034822800000000e-002
    vertex  -6.969543200000004e-003   1.732958300000000e-002  -1.096206500000000e-002
  endloop
endfacet
facet normal  -5.713433389598007e-001   7.995985359944673e-001  -1.849566713091767e-001
  outer loop
    vertex  -6.969543200000004e-003   1.732958300000000e-002  -1.096206500000000e-002
    vertex  -7.624891100000004e-003   1.700330000000000e-002  -1.034822800000000e-002
    vertex  -1.050190700000001e-002   1.813770500000000e-002   3.443285600000003e-003
  endloop
endfacet
facet normal   1.814656629246569e-002   8.643093540947512e-001  -5.026331092915658e-001
  outer loop
    vertex  -7.388218800000004e-003   1.712402000000000e-002  -1.133065900000000e-002
    vertex  -7.654293900000005e-003   1.720763200000001e-002  -1.119648900000000e-002
    vertex  -6.969543200000004e-003   1.732958300000000e-002  -1.096206500000000e-002
  endloop
endfacet
endsolid Main.HumanModel.BodyModel.Left.Leg.Seg.Patella.DrwSurf
