solid Main.HumanModel.BodyModel.Right.Leg.Seg.Patella.DrwSurf
facet normal   5.381209210061311e-001  -7.882857519057716e-001  -2.983813796433443e-001
  outer loop
    vertex   1.889762600000000e-003  -1.956478300000001e-002  -3.100120500000002e-003
    vertex   5.176443600000001e-003  -1.699333100000000e-002  -3.966150300000000e-003
    vertex   1.473503199999999e-003  -2.092785400000000e-002  -2.497698600000013e-004
  endloop
endfacet
facet normal   4.465418300942872e-001  -7.995802128529919e-001  -4.015866994685071e-001
  outer loop
    vertex   5.176443600000001e-003  -1.699333100000000e-002  -3.966150300000000e-003
    vertex   3.219376800000001e-003  -2.032103900000000e-002   4.833428799999990e-004
    vertex   1.473503199999999e-003  -2.092785400000000e-002  -2.497698600000013e-004
  endloop
endfacet
facet normal   2.408706128706742e-001  -9.474345636954757e-001   2.105922490750052e-001
  outer loop
    vertex   1.473503199999999e-003  -2.092785400000000e-002  -2.497698600000013e-004
    vertex   3.219376800000001e-003  -2.032103900000000e-002   4.833428799999990e-004
    vertex   2.643390800000001e-003  -1.921368600000001e-002   6.124018699999999e-003
  endloop
endfacet
facet normal   3.106657927854730e-001  -6.352159200700513e-001  -7.070979423548988e-001
  outer loop
    vertex   5.176443600000001e-003  -1.699333100000000e-002  -3.966150300000000e-003
    vertex   1.889762600000000e-003  -1.956478300000001e-002  -3.100120500000002e-003
    vertex   2.045363399999999e-003  -1.708651300000001e-002  -5.258091300000000e-003
  endloop
endfacet
facet normal  -3.420936664648496e-001  -8.897833249008328e-001   3.020886593254625e-001
  outer loop
    vertex   1.473503199999999e-003  -2.092785400000000e-002  -2.497698600000013e-004
    vertex   2.643390800000001e-003  -1.921368600000001e-002   6.124018699999999e-003
    vertex  -2.197381999999999e-003  -1.811922200000001e-002   3.865867399999997e-003
  endloop
endfacet
facet normal  -6.131824458430024e-001  -7.899021443365385e-001  -7.867050434046435e-003
  outer loop
    vertex  -2.197381999999999e-003  -1.811922200000001e-002   3.865867399999997e-003
    vertex  -6.574366700000002e-003  -1.467463800000000e-002  -8.365435600000048e-004
    vertex   1.473503199999999e-003  -2.092785400000000e-002  -2.497698600000013e-004
  endloop
endfacet
facet normal   8.051055447254645e-001  -5.870228141869756e-001  -8.490746419671755e-002
  outer loop
    vertex   7.754092600000003e-003  -1.480423100000000e-002   5.340780100000003e-003
    vertex   3.219376800000001e-003  -2.032103900000000e-002   4.833428799999990e-004
    vertex   5.176443600000001e-003  -1.699333100000000e-002  -3.966150300000000e-003
  endloop
endfacet
facet normal   6.569759546288079e-001  -7.242837771766230e-001   2.092739954182812e-001
  outer loop
    vertex   2.643390800000001e-003  -1.921368600000001e-002   6.124018699999999e-003
    vertex   3.219376800000001e-003  -2.032103900000000e-002   4.833428799999990e-004
    vertex   7.754092600000003e-003  -1.480423100000000e-002   5.340780100000003e-003
  endloop
endfacet
facet normal  -2.058407269142076e-002  -9.923825479366482e-001   1.214626465305318e-001
  outer loop
    vertex   2.045363399999999e-003  -1.708651300000001e-002  -5.258091300000000e-003
    vertex   2.507308699999999e-003  -1.740003200000000e-002  -7.741340900000001e-003
    vertex   5.176443600000001e-003  -1.699333100000000e-002  -3.966150300000000e-003
  endloop
endfacet
facet normal  -5.869120382691789e-001  -7.767815400730974e-001  -2.283521367020346e-001
  outer loop
    vertex   1.473503199999999e-003  -2.092785400000000e-002  -2.497698600000013e-004
    vertex  -6.574366700000002e-003  -1.467463800000000e-002  -8.365435600000048e-004
    vertex  -4.642125700000003e-003  -1.470977300000000e-002  -5.683282900000004e-003
  endloop
endfacet
facet normal  -4.165061387075510e-001  -7.950065147375941e-001  -4.410071177925700e-001
  outer loop
    vertex   1.889762600000000e-003  -1.956478300000001e-002  -3.100120500000002e-003
    vertex   1.473503199999999e-003  -2.092785400000000e-002  -2.497698600000013e-004
    vertex  -4.642125700000003e-003  -1.470977300000000e-002  -5.683282900000004e-003
  endloop
endfacet
facet normal   6.221994756065616e-001  -6.414268458786278e-001   4.488200239974983e-001
  outer loop
    vertex   2.643390800000001e-003  -1.921368600000001e-002   6.124018699999999e-003
    vertex   7.754092600000003e-003  -1.480423100000000e-002   5.340780100000003e-003
    vertex   3.486542300000002e-003  -1.232598100000000e-002   1.479865500000000e-002
  endloop
endfacet
facet normal   6.100792174097480e-001  -7.083492448677815e-001  -3.550277394513747e-001
  outer loop
    vertex   2.507308699999999e-003  -1.740003200000000e-002  -7.741340900000001e-003
    vertex   6.097796800000000e-003  -1.348438000000001e-002  -9.383936399999999e-003
    vertex   5.176443600000001e-003  -1.699333100000000e-002  -3.966150300000000e-003
  endloop
endfacet
facet normal  -6.102752883093571e-001  -6.459525511223937e-001   4.585950001661622e-001
  outer loop
    vertex  -5.345464200000001e-003  -1.472809300000000e-002   4.453121199999995e-003
    vertex  -2.197381999999999e-003  -1.811922200000001e-002   3.865867399999997e-003
    vertex   8.409911500000016e-004  -1.285699200000000e-002   1.532128000000000e-002
  endloop
endfacet
facet normal  -1.797737469659274e-001  -6.395476116520663e-001  -7.474357847547630e-001
  outer loop
    vertex   2.045363399999999e-003  -1.708651300000001e-002  -5.258091300000000e-003
    vertex   1.889762600000000e-003  -1.956478300000001e-002  -3.100120500000002e-003
    vertex  -4.642125700000003e-003  -1.470977300000000e-002  -5.683282900000004e-003
  endloop
endfacet
facet normal  -3.375085394891360e-001  -9.396641140497986e-001   5.585103883471997e-002
  outer loop
    vertex   2.507308699999999e-003  -1.740003200000000e-002  -7.741340900000001e-003
    vertex   2.045363399999999e-003  -1.708651300000001e-002  -5.258091300000000e-003
    vertex  -4.642125700000003e-003  -1.470977300000000e-002  -5.683282900000004e-003
  endloop
endfacet
facet normal   5.882623216563878e-001  -7.053365653173416e-001  -3.955347905630704e-001
  outer loop
    vertex   6.097796800000000e-003  -1.348438000000001e-002  -9.383936399999999e-003
    vertex   2.507308699999999e-003  -1.740003200000000e-002  -7.741340900000001e-003
    vertex   3.979633999999999e-003  -1.296496100000000e-002  -1.346044400000000e-002
  endloop
endfacet
facet normal  -7.098872503288076e-001  -6.863676478715522e-001   1.579858973955516e-001
  outer loop
    vertex  -5.345464200000001e-003  -1.472809300000000e-002   4.453121199999995e-003
    vertex  -6.574366700000002e-003  -1.467463800000000e-002  -8.365435600000048e-004
    vertex  -2.197381999999999e-003  -1.811922200000001e-002   3.865867399999997e-003
  endloop
endfacet
facet normal  -4.121149792488417e-001  -8.556108305668044e-001  -3.131953870916845e-001
  outer loop
    vertex  -4.642125700000003e-003  -1.470977300000000e-002  -5.683282900000004e-003
    vertex  -7.376670800000004e-003  -1.145200400000000e-002  -1.098487900000000e-002
    vertex   2.507308699999999e-003  -1.740003200000000e-002  -7.741340900000001e-003
  endloop
endfacet
facet normal   3.668772454584990e-002  -7.942497247895614e-001  -6.064827990465631e-001
  outer loop
    vertex   2.507308699999999e-003  -1.740003200000000e-002  -7.741340900000001e-003
    vertex   2.119684799999998e-003  -1.165488300000000e-002  -1.528863500000000e-002
    vertex   3.979633999999999e-003  -1.296496100000000e-002  -1.346044400000000e-002
  endloop
endfacet
facet normal  -3.968367241588922e-001  -7.896279172164289e-001   4.679832974704157e-001
  outer loop
    vertex  -2.197381999999999e-003  -1.811922200000001e-002   3.865867399999997e-003
    vertex   2.643390800000001e-003  -1.921368600000001e-002   6.124018699999999e-003
    vertex   8.409911500000016e-004  -1.285699200000000e-002   1.532128000000000e-002
  endloop
endfacet
facet normal   2.690365520716418e-001  -7.668428853005901e-001   5.827274859771666e-001
  outer loop
    vertex   3.486542300000002e-003  -1.232598100000000e-002   1.479865500000000e-002
    vertex   8.409911500000016e-004  -1.285699200000000e-002   1.532128000000000e-002
    vertex   2.643390800000001e-003  -1.921368600000001e-002   6.124018699999999e-003
  endloop
endfacet
facet normal  -2.762174158609759e-001  -7.715224357885639e-001  -5.731117432490510e-001
  outer loop
    vertex   2.507308699999999e-003  -1.740003200000000e-002  -7.741340900000001e-003
    vertex  -7.376670800000004e-003  -1.145200400000000e-002  -1.098487900000000e-002
    vertex   2.119684799999998e-003  -1.165488300000000e-002  -1.528863500000000e-002
  endloop
endfacet
facet normal  -4.234542614949591e-001  -9.015086497170696e-001   8.926725551435212e-002
  outer loop
    vertex  -8.744304100000001e-003  -1.333854100000000e-002   2.363216099999994e-003
    vertex  -6.574366700000002e-003  -1.467463800000000e-002  -8.365435600000048e-004
    vertex  -5.345464200000001e-003  -1.472809300000000e-002   4.453121199999995e-003
  endloop
endfacet
facet normal  -4.709420292990620e-001  -8.606428790966325e-001   1.936683755803735e-001
  outer loop
    vertex  -7.916286600000001e-003  -1.340039400000001e-002   4.101831899999994e-003
    vertex  -8.744304100000001e-003  -1.333854100000000e-002   2.363216099999994e-003
    vertex  -5.345464200000001e-003  -1.472809300000000e-002   4.453121199999995e-003
  endloop
endfacet
facet normal  -4.999265571051354e-001  -8.287736560528667e-001  -2.514113452765615e-001
  outer loop
    vertex  -7.376670800000004e-003  -1.145200400000000e-002  -1.098487900000000e-002
    vertex  -4.642125700000003e-003  -1.470977300000000e-002  -5.683282900000004e-003
    vertex  -8.512717700000002e-003  -1.221128900000000e-002  -6.222900500000005e-003
  endloop
endfacet
facet normal   1.471967862052833e-001  -9.835084117151467e-001  -1.050919131826311e-001
  outer loop
    vertex  -8.552370600000005e-003  -1.345498800000000e-002   3.721822999999994e-003
    vertex  -8.744304100000001e-003  -1.333854100000000e-002   2.363216099999994e-003
    vertex  -7.916286600000001e-003  -1.340039400000001e-002   4.101831899999994e-003
  endloop
endfacet
facet normal  -6.400447613872583e-001  -7.593831698166550e-001  -1.169611252508146e-001
  outer loop
    vertex  -6.574366700000002e-003  -1.467463800000000e-002  -8.365435600000048e-004
    vertex  -8.744304100000001e-003  -1.333854100000000e-002   2.363216099999994e-003
    vertex  -8.512717700000002e-003  -1.221128900000000e-002  -6.222900500000005e-003
  endloop
endfacet
facet normal  -5.119511558439690e-001  -8.358746766039906e-001  -1.980392361179932e-001
  outer loop
    vertex  -6.574366700000002e-003  -1.467463800000000e-002  -8.365435600000048e-004
    vertex  -8.512717700000002e-003  -1.221128900000000e-002  -6.222900500000005e-003
    vertex  -4.642125700000003e-003  -1.470977300000000e-002  -5.683282900000004e-003
  endloop
endfacet
facet normal  -2.845660535929057e-001  -7.537359862498907e-001  -5.923716942718180e-001
  outer loop
    vertex   2.119684799999998e-003  -1.165488300000000e-002  -1.528863500000000e-002
    vertex  -7.376670800000004e-003  -1.145200400000000e-002  -1.098487900000000e-002
    vertex  -2.364706500000004e-003  -1.145542500000001e-002  -1.338819500000000e-002
  endloop
endfacet
facet normal  -4.611901798128807e-001  -7.821422083939644e-001   4.189954461480165e-001
  outer loop
    vertex  -5.345464200000001e-003  -1.472809300000000e-002   4.453121199999995e-003
    vertex  -2.993494699999999e-003  -1.076174700000000e-002   1.444595500000000e-002
    vertex  -7.916286600000001e-003  -1.340039400000001e-002   4.101831899999994e-003
  endloop
endfacet
facet normal   9.246702453651118e-001  -3.715279363891941e-001  -8.337823348339064e-002
  outer loop
    vertex   9.444233000000002e-003  -6.481034200000001e-003  -3.478181999999996e-003
    vertex   5.176443600000001e-003  -1.699333100000000e-002  -3.966150300000000e-003
    vertex   6.097796800000000e-003  -1.348438000000001e-002  -9.383936399999999e-003
  endloop
endfacet
facet normal  -5.026118577573894e-001   3.482273813513791e-001   7.912768234434944e-001
  outer loop
    vertex  -8.363488100000000e-003  -1.243118800000000e-002   3.391242599999994e-003
    vertex  -8.552370600000005e-003  -1.345498800000000e-002   3.721822999999994e-003
    vertex  -7.916286600000001e-003  -1.340039400000001e-002   4.101831899999994e-003
  endloop
endfacet
facet normal  -5.072080498295262e-001  -7.534297411248881e-001   4.184299456021436e-001
  outer loop
    vertex  -5.345464200000001e-003  -1.472809300000000e-002   4.453121199999995e-003
    vertex   8.409911500000016e-004  -1.285699200000000e-002   1.532128000000000e-002
    vertex  -2.993494699999999e-003  -1.076174700000000e-002   1.444595500000000e-002
  endloop
endfacet
facet normal  -3.106163145397360e-002  -9.975074151532595e-001  -6.335717611825986e-002
  outer loop
    vertex  -7.380228500000003e-003  -1.126193800000000e-002  -1.397557000000001e-002
    vertex  -2.364706500000004e-003  -1.145542500000001e-002  -1.338819500000000e-002
    vertex  -7.376670800000004e-003  -1.145200400000000e-002  -1.098487900000000e-002
  endloop
endfacet
facet normal  -9.613131012462046e-001   2.275018687567546e-001   1.553062171472501e-001
  outer loop
    vertex  -8.363488100000000e-003  -1.243118800000000e-002   3.391242599999994e-003
    vertex  -8.744304100000001e-003  -1.333854100000000e-002   2.363216099999994e-003
    vertex  -8.552370600000005e-003  -1.345498800000000e-002   3.721822999999994e-003
  endloop
endfacet
facet normal   9.160675987253716e-001  -3.641040132021765e-001  -1.680726692106747e-001
  outer loop
    vertex   9.444233000000002e-003  -6.481034200000001e-003  -3.478181999999996e-003
    vertex   7.754092600000003e-003  -1.480423100000000e-002   5.340780100000003e-003
    vertex   5.176443600000001e-003  -1.699333100000000e-002  -3.966150300000000e-003
  endloop
endfacet
facet normal  -3.562680093161517e-001  -5.021782929975561e-001  -7.879657781781941e-001
  outer loop
    vertex   2.057987999999974e-004  -9.151804300000002e-003  -1.601853400000000e-002
    vertex   2.119684799999998e-003  -1.165488300000000e-002  -1.528863500000000e-002
    vertex  -2.364706500000004e-003  -1.145542500000001e-002  -1.338819500000000e-002
  endloop
endfacet
facet normal  -9.690962461538808e-001  -5.630491228452254e-002  -2.401712358778406e-001
  outer loop
    vertex  -8.512717700000002e-003  -1.221128900000000e-002  -6.222900500000005e-003
    vertex  -7.897909700000002e-003  -6.856861500000002e-003  -9.958937800000003e-003
    vertex  -7.376670800000004e-003  -1.145200400000000e-002  -1.098487900000000e-002
  endloop
endfacet
facet normal  -2.025803857216251e-001  -6.299932696667441e-001  -7.497130567727112e-001
  outer loop
    vertex  -4.403484900000032e-004  -8.943890200000002e-003  -1.601865100000000e-002
    vertex   2.057987999999974e-004  -9.151804300000002e-003  -1.601853400000000e-002
    vertex  -2.364706500000004e-003  -1.145542500000001e-002  -1.338819500000000e-002
  endloop
endfacet
facet normal   4.994448700090039e-002  -7.403607768683953e-001  -6.703517496755290e-001
  outer loop
    vertex  -2.364706500000004e-003  -1.145542500000001e-002  -1.338819500000000e-002
    vertex  -7.380228500000003e-003  -1.126193800000000e-002  -1.397557000000001e-002
    vertex  -4.403484900000032e-004  -8.943890200000002e-003  -1.601865100000000e-002
  endloop
endfacet
facet normal   1.474094722542564e-001  -8.646360849977484e-001  -4.802862563195914e-001
  outer loop
    vertex  -7.380228500000003e-003  -1.126193800000000e-002  -1.397557000000001e-002
    vertex  -5.696614700000004e-003  -9.048369700000003e-003  -1.744381500000000e-002
    vertex  -4.403484900000032e-004  -8.943890200000002e-003  -1.601865100000000e-002
  endloop
endfacet
facet normal  -4.084030044296723e-001  -5.291553856901526e-001  -7.437752105091450e-001
  outer loop
    vertex   4.983462899999985e-004  -8.792581000000004e-003  -1.643473800000000e-002
    vertex   2.119684799999998e-003  -1.165488300000000e-002  -1.528863500000000e-002
    vertex   2.057987999999974e-004  -9.151804300000002e-003  -1.601853400000000e-002
  endloop
endfacet
facet normal   1.551077713645811e-001   4.815524486110949e-001  -8.625826444457202e-001
  outer loop
    vertex   2.057987999999974e-004  -9.151804300000002e-003  -1.601853400000000e-002
    vertex  -4.403484900000032e-004  -8.943890200000002e-003  -1.601865100000000e-002
    vertex   2.973125399999978e-004  -8.910597300000002e-003  -1.586742000000000e-002
  endloop
endfacet
facet normal  -8.630745619931858e-001   4.592076296765498e-001  -2.103108491902282e-001
  outer loop
    vertex   2.973125399999978e-004  -8.910597300000002e-003  -1.586742000000000e-002
    vertex   4.983462899999985e-004  -8.792581000000004e-003  -1.643473800000000e-002
    vertex   2.057987999999974e-004  -9.151804300000002e-003  -1.601853400000000e-002
  endloop
endfacet
facet normal   3.978602739315477e-001  -5.044897495550310e-001  -7.662879974402679e-001
  outer loop
    vertex   3.979633999999999e-003  -1.296496100000000e-002  -1.346044400000000e-002
    vertex   2.119684799999998e-003  -1.165488300000000e-002  -1.528863500000000e-002
    vertex   4.054528199999999e-003  -5.682792000000003e-003  -1.821581300000000e-002
  endloop
endfacet
facet normal   8.029505760251202e-002  -9.811717607309188e-001  -1.756550018325630e-001
  outer loop
    vertex  -4.403484900000032e-004  -8.943890200000002e-003  -1.601865100000000e-002
    vertex   4.983462899999985e-004  -8.792581000000004e-003  -1.643473800000000e-002
    vertex   2.973125399999978e-004  -8.910597300000002e-003  -1.586742000000000e-002
  endloop
endfacet
facet normal  -3.224603367380519e-001  -5.035906699084991e-001  -8.015084331508254e-001
  outer loop
    vertex   1.222028299999999e-003  -7.165236400000003e-003  -1.774835400000000e-002
    vertex   2.119684799999998e-003  -1.165488300000000e-002  -1.528863500000000e-002
    vertex   4.983462899999985e-004  -8.792581000000004e-003  -1.643473800000000e-002
  endloop
endfacet
facet normal   2.646046324258388e-001  -5.172198391106733e-001   8.139213884209677e-001
  outer loop
    vertex   3.824561800000003e-003  -2.310361199999999e-003   2.105335700000001e-002
    vertex   8.409911500000016e-004  -1.285699200000000e-002   1.532128000000000e-002
    vertex   3.486542300000002e-003  -1.232598100000000e-002   1.479865500000000e-002
  endloop
endfacet
facet normal   3.314685117066090e-001  -7.885443992023716e-001  -5.180022743517410e-001
  outer loop
    vertex  -1.108452700000003e-003  -7.113584300000002e-003  -1.745314500000000e-002
    vertex  -5.696614700000004e-003  -9.048369700000003e-003  -1.744381500000000e-002
    vertex  -2.521947500000003e-003  -6.353750400000003e-003  -1.951431700000000e-002
  endloop
endfacet
facet normal   2.291383994071062e-001  -5.472620380465405e-001  -8.049843822275662e-001
  outer loop
    vertex  -4.403484900000032e-004  -8.943890200000002e-003  -1.601865100000000e-002
    vertex  -5.696614700000004e-003  -9.048369700000003e-003  -1.744381500000000e-002
    vertex  -1.108452700000003e-003  -7.113584300000002e-003  -1.745314500000000e-002
  endloop
endfacet
facet normal  -2.178915323790268e-001  -6.500725595891971e-001  -7.279621881572349e-001
  outer loop
    vertex  -1.108452700000003e-003  -7.113584300000002e-003  -1.745314500000000e-002
    vertex   4.983462899999985e-004  -8.792581000000004e-003  -1.643473800000000e-002
    vertex  -4.403484900000032e-004  -8.943890200000002e-003  -1.601865100000000e-002
  endloop
endfacet
facet normal  -1.141262012903336e-001  -5.927857879346649e-001  -7.972328516824410e-001
  outer loop
    vertex   1.222028299999999e-003  -7.165236400000003e-003  -1.774835400000000e-002
    vertex   4.983462899999985e-004  -8.792581000000004e-003  -1.643473800000000e-002
    vertex  -1.108452700000003e-003  -7.113584300000002e-003  -1.745314500000000e-002
  endloop
endfacet
facet normal   9.705295291219132e-002  -4.632173145257691e-001  -8.809145496894457e-001
  outer loop
    vertex   4.054528199999999e-003  -5.682792000000003e-003  -1.821581300000000e-002
    vertex   2.119684799999998e-003  -1.165488300000000e-002  -1.528863500000000e-002
    vertex   1.222028299999999e-003  -7.165236400000003e-003  -1.774835400000000e-002
  endloop
endfacet
facet normal  -8.457605153428721e-001  -2.564192165431271e-001   4.679084697613073e-001
  outer loop
    vertex  -5.091560500000002e-003  -8.203347200000002e-003   1.205566200000000e-002
    vertex  -7.916286600000001e-003  -1.340039400000001e-002   4.101831899999994e-003
    vertex  -2.993494699999999e-003  -1.076174700000000e-002   1.444595500000000e-002
  endloop
endfacet
facet normal  -4.537845474537106e-001  -5.317274586823397e-001   7.150842566966857e-001
  outer loop
    vertex  -2.993494699999999e-003  -1.076174700000000e-002   1.444595500000000e-002
    vertex   8.409911500000016e-004  -1.285699200000000e-002   1.532128000000000e-002
    vertex  -1.718242799999998e-003  -2.488878999999999e-003   2.140681400000000e-002
  endloop
endfacet
facet normal  -9.937572919353903e-001  -1.114076185672237e-001  -5.898071754347045e-003
  outer loop
    vertex  -7.897909700000002e-003  -6.856861500000002e-003  -9.958937800000003e-003
    vertex  -7.380228500000003e-003  -1.126193800000000e-002  -1.397557000000001e-002
    vertex  -7.376670800000004e-003  -1.145200400000000e-002  -1.098487900000000e-002
  endloop
endfacet
facet normal   8.422867405728863e-001  -2.620507039165750e-001  -4.710440268509207e-001
  outer loop
    vertex   8.591403300000002e-003  -4.217525000000002e-003  -1.008037700000000e-002
    vertex   6.097796800000000e-003  -1.348438000000001e-002  -9.383936399999999e-003
    vertex   3.979633999999999e-003  -1.296496100000000e-002  -1.346044400000000e-002
  endloop
endfacet
facet normal  -9.253932506130136e-001   1.901793384844495e-001  -3.278401301450102e-001
  outer loop
    vertex  -7.897909700000002e-003  -6.856861500000002e-003  -9.958937800000003e-003
    vertex  -5.696614700000004e-003  -9.048369700000003e-003  -1.744381500000000e-002
    vertex  -7.380228500000003e-003  -1.126193800000000e-002  -1.397557000000001e-002
  endloop
endfacet
facet normal  -6.992633936698420e-001   1.910319813184098e-001  -6.888668146941747e-001
  outer loop
    vertex  -4.888556400000002e-003  -5.751187400000002e-003  -1.734971600000000e-002
    vertex  -3.124295300000003e-003  -5.460213900000002e-003  -1.905991300000001e-002
    vertex  -5.696614700000004e-003  -9.048369700000003e-003  -1.744381500000000e-002
  endloop
endfacet
facet normal  -5.672144815961365e-001   3.605270274258607e-002  -8.227806113980694e-001
  outer loop
    vertex  -5.696614700000004e-003  -9.048369700000003e-003  -1.744381500000000e-002
    vertex  -3.124295300000003e-003  -5.460213900000002e-003  -1.905991300000001e-002
    vertex  -2.521947500000003e-003  -6.353750400000003e-003  -1.951431700000000e-002
  endloop
endfacet
facet normal  -8.829642627177772e-002   5.925067038927169e-001  -8.007119000925494e-001
  outer loop
    vertex   1.222028299999999e-003  -7.165236400000003e-003  -1.774835400000000e-002
    vertex  -1.108452700000003e-003  -7.113584300000002e-003  -1.745314500000000e-002
    vertex   1.313999599999998e-003  -6.568327100000002e-003  -1.731679800000000e-002
  endloop
endfacet
facet normal  -5.663314858602305e-001   5.384077116830752e-001  -6.240078397933299e-001
  outer loop
    vertex   1.222028299999999e-003  -7.165236400000003e-003  -1.774835400000000e-002
    vertex   1.313999599999998e-003  -6.568327100000002e-003  -1.731679800000000e-002
    vertex   2.003445799999998e-003  -6.436357300000002e-003  -1.782865300000000e-002
  endloop
endfacet
facet normal  -2.350838853633971e-001   1.461663414914279e-001  -9.609219361932895e-001
  outer loop
    vertex   4.054528199999999e-003  -5.682792000000003e-003  -1.821581300000000e-002
    vertex   1.222028299999999e-003  -7.165236400000003e-003  -1.774835400000000e-002
    vertex   2.003445799999998e-003  -6.436357300000002e-003  -1.782865300000000e-002
  endloop
endfacet
facet normal   5.491866202178924e-001  -4.608812351150173e-001  -6.971244819201981e-001
  outer loop
    vertex   6.564132400000000e-003  -2.737494000000001e-003  -1.818596400000000e-002
    vertex   3.979633999999999e-003  -1.296496100000000e-002  -1.346044400000000e-002
    vertex   4.054528199999999e-003  -5.682792000000003e-003  -1.821581300000000e-002
  endloop
endfacet
facet normal   4.144688929926360e-001  -7.241604669822149e-001  -5.511870415762324e-001
  outer loop
    vertex   2.499056399999744e-005  -5.448798600000001e-003  -1.878807300000000e-002
    vertex  -1.108452700000003e-003  -7.113584300000002e-003  -1.745314500000000e-002
    vertex  -2.521947500000003e-003  -6.353750400000003e-003  -1.951431700000000e-002
  endloop
endfacet
facet normal   8.886022549722360e-001  -3.573900938791645e-001  -2.875036578120339e-001
  outer loop
    vertex   8.591403300000002e-003  -4.217525000000002e-003  -1.008037700000000e-002
    vertex   3.979633999999999e-003  -1.296496100000000e-002  -1.346044400000000e-002
    vertex   6.564132400000000e-003  -2.737494000000001e-003  -1.818596400000000e-002
  endloop
endfacet
facet normal  -9.104192963130114e-001  -1.328373626150633e-001   3.917791980113230e-001
  outer loop
    vertex  -9.836525700000003e-003  -3.545977900000002e-003   2.980822699999994e-003
    vertex  -8.363488100000000e-003  -1.243118800000000e-002   3.391242599999994e-003
    vertex  -7.916286600000001e-003  -1.340039400000001e-002   4.101831899999994e-003
  endloop
endfacet
facet normal  -8.884293180841574e-001  -1.269126451351339e-001   4.411196292088153e-001
  outer loop
    vertex  -8.744304100000001e-003  -1.333854100000000e-002   2.363216099999994e-003
    vertex  -8.363488100000000e-003  -1.243118800000000e-002   3.391242599999994e-003
    vertex  -9.836525700000003e-003  -3.545977900000002e-003   2.980822699999994e-003
  endloop
endfacet
facet normal   1.946934477724198e-001  -6.908683077352786e-001  -6.962725348320731e-001
  outer loop
    vertex   1.313999599999998e-003  -6.568327100000002e-003  -1.731679800000000e-002
    vertex  -1.108452700000003e-003  -7.113584300000002e-003  -1.745314500000000e-002
    vertex   2.499056399999744e-005  -5.448798600000001e-003  -1.878807300000000e-002
  endloop
endfacet
facet normal  -1.935032553709160e-001  -8.550467446928104e-001  -4.810941223410302e-001
  outer loop
    vertex   1.313999599999998e-003  -6.568327100000002e-003  -1.731679800000000e-002
    vertex   2.499056399999744e-005  -5.448798600000001e-003  -1.878807300000000e-002
    vertex   2.003445799999998e-003  -6.436357300000002e-003  -1.782865300000000e-002
  endloop
endfacet
facet normal   7.117755221544997e-002  -4.917849621979159e-001   8.678025737554662e-001
  outer loop
    vertex   3.824561800000003e-003  -2.310361199999999e-003   2.105335700000001e-002
    vertex  -1.718242799999998e-003  -2.488878999999999e-003   2.140681400000000e-002
    vertex   8.409911500000016e-004  -1.285699200000000e-002   1.532128000000000e-002
  endloop
endfacet
facet normal  -5.877981761840253e-001   1.510101116044408e-002  -8.088666537425471e-001
  outer loop
    vertex  -2.410458400000004e-003  -5.172915800000002e-003  -1.957329000000000e-002
    vertex  -2.521947500000003e-003  -6.353750400000003e-003  -1.951431700000000e-002
    vertex  -3.124295300000003e-003  -5.460213900000002e-003  -1.905991300000001e-002
  endloop
endfacet
facet normal   2.676137788019711e-001   1.990179328722364e-002  -9.633207067323334e-001
  outer loop
    vertex   2.499056399999744e-005  -5.448798600000001e-003  -1.878807300000000e-002
    vertex  -2.521947500000003e-003  -6.353750400000003e-003  -1.951431700000000e-002
    vertex  -1.086384800000003e-003  -5.305384800000002e-003  -1.909385400000000e-002
  endloop
endfacet
facet normal  -4.027194841283112e-001   8.756797085243256e-001  -2.664621271066099e-001
  outer loop
    vertex  -3.124295300000003e-003  -5.460213900000002e-003  -1.905991300000001e-002
    vertex  -4.888556400000002e-003  -5.751187400000002e-003  -1.734971600000000e-002
    vertex  -2.390975600000003e-003  -4.890339900000002e-003  -1.829543300000000e-002
  endloop
endfacet
facet normal  -1.829544551391518e-001   9.589665407304966e-001  -2.165891066146236e-001
  outer loop
    vertex  -1.842707200000002e-003  -5.175008900000002e-003  -1.868162900000000e-002
    vertex  -1.586489600000002e-003  -4.950853500000001e-003  -1.790559100000000e-002
    vertex  -1.065870000000003e-003  -4.939734500000003e-003  -1.829613200000000e-002
  endloop
endfacet
facet normal   2.333634697463952e-001   9.109474147599188e-001  -3.401709842566584e-001
  outer loop
    vertex  -1.586489600000002e-003  -4.950853500000001e-003  -1.790559100000000e-002
    vertex  -1.842707200000002e-003  -5.175008900000002e-003  -1.868162900000000e-002
    vertex  -2.390975600000003e-003  -4.890339900000002e-003  -1.829543300000000e-002
  endloop
endfacet
facet normal  -1.474136450264589e-001   8.636135737933297e-001   4.821211594816456e-001
  outer loop
    vertex  -1.711434300000003e-003  -4.857966700000002e-003  -1.920940200000000e-002
    vertex  -2.428383800000003e-003  -5.014183500000003e-003  -1.914878900000000e-002
    vertex  -1.842707200000002e-003  -5.175008900000002e-003  -1.868162900000000e-002
  endloop
endfacet
facet normal  -3.435336387980905e-001   6.676075441589848e-001   6.605185886832803e-001
  outer loop
    vertex  -2.428383800000003e-003  -5.014183500000003e-003  -1.914878900000000e-002
    vertex  -3.124295300000003e-003  -5.460213900000002e-003  -1.905991300000001e-002
    vertex  -1.842707200000002e-003  -5.175008900000002e-003  -1.868162900000000e-002
  endloop
endfacet
facet normal  -2.811886166334473e-003   8.030388531582071e-001  -5.959200396148288e-001
  outer loop
    vertex  -3.124295300000003e-003  -5.460213900000002e-003  -1.905991300000001e-002
    vertex  -2.390975600000003e-003  -4.890339900000002e-003  -1.829543300000000e-002
    vertex  -1.842707200000002e-003  -5.175008900000002e-003  -1.868162900000000e-002
  endloop
endfacet
facet normal  -5.403610673546798e-001   7.803963998824797e-001  -3.146289496180794e-001
  outer loop
    vertex  -3.124295300000003e-003  -5.460213900000002e-003  -1.905991300000001e-002
    vertex  -2.428383800000003e-003  -5.014183500000003e-003  -1.914878900000000e-002
    vertex  -2.410458400000004e-003  -5.172915800000002e-003  -1.957329000000000e-002
  endloop
endfacet
facet normal  -6.931470399356364e-002   9.075404505210415e-001  -4.142050246898867e-001
  outer loop
    vertex  -1.086384800000003e-003  -5.305384800000002e-003  -1.909385400000000e-002
    vertex  -1.842707200000002e-003  -5.175008900000002e-003  -1.868162900000000e-002
    vertex  -1.065870000000003e-003  -4.939734500000003e-003  -1.829613200000000e-002
  endloop
endfacet
facet normal   4.207169719902084e-001   7.276606915061644e-001   5.417629993974864e-001
  outer loop
    vertex  -1.086384800000003e-003  -5.305384800000002e-003  -1.909385400000000e-002
    vertex  -1.711434300000003e-003  -4.857966700000002e-003  -1.920940200000000e-002
    vertex  -1.842707200000002e-003  -5.175008900000002e-003  -1.868162900000000e-002
  endloop
endfacet
facet normal   2.269368699888048e-001   8.831114363919530e-001  -4.106261656950591e-001
  outer loop
    vertex  -1.065870000000003e-003  -4.939734500000003e-003  -1.829613200000000e-002
    vertex   2.499056399999744e-005  -5.448798600000001e-003  -1.878807300000000e-002
    vertex  -1.086384800000003e-003  -5.305384800000002e-003  -1.909385400000000e-002
  endloop
endfacet
facet normal   5.223079099317903e-001  -4.168498604022939e-001  -7.439291909216044e-001
  outer loop
    vertex  -1.629592300000002e-003  -5.096091400000002e-003  -1.959251100000000e-002
    vertex  -1.086384800000003e-003  -5.305384800000002e-003  -1.909385400000000e-002
    vertex  -2.521947500000003e-003  -6.353750400000003e-003  -1.951431700000000e-002
  endloop
endfacet
facet normal   5.888404150102202e-001   7.368285889031874e-001  -3.321906022534795e-001
  outer loop
    vertex  -1.629592300000002e-003  -5.096091400000002e-003  -1.959251100000000e-002
    vertex  -1.711434300000003e-003  -4.857966700000002e-003  -1.920940200000000e-002
    vertex  -1.086384800000003e-003  -5.305384800000002e-003  -1.909385400000000e-002
  endloop
endfacet
facet normal  -1.985939721471132e-002  -4.799933502242557e-002  -9.986499227355266e-001
  outer loop
    vertex  -2.410458400000004e-003  -5.172915800000002e-003  -1.957329000000000e-002
    vertex  -1.629592300000002e-003  -5.096091400000002e-003  -1.959251100000000e-002
    vertex  -2.521947500000003e-003  -6.353750400000003e-003  -1.951431700000000e-002
  endloop
endfacet
facet normal   9.392459585896721e-001  -2.687841117314919e-001  -2.134762997470238e-001
  outer loop
    vertex   9.444233000000002e-003  -6.481034200000001e-003  -3.478181999999996e-003
    vertex   6.097796800000000e-003  -1.348438000000001e-002  -9.383936399999999e-003
    vertex   8.591403300000002e-003  -4.217525000000002e-003  -1.008037700000000e-002
  endloop
endfacet
facet normal  -9.592687977458122e-001  -7.908326462674824e-002  -2.711995776679601e-001
  outer loop
    vertex  -7.897909700000002e-003  -6.856861500000002e-003  -9.958937800000003e-003
    vertex  -8.512717700000002e-003  -1.221128900000000e-002  -6.222900500000005e-003
    vertex  -1.035657200000000e-002  -3.383266700000002e-003  -2.275242900000005e-003
  endloop
endfacet
facet normal   2.017827880710877e-001  -6.376018827089425e-001   7.434699359115139e-001
  outer loop
    vertex  -2.428383800000003e-003  -5.014183500000003e-003  -1.914878900000000e-002
    vertex  -1.711434300000003e-003  -4.857966700000002e-003  -1.920940200000000e-002
    vertex  -2.163421600000003e-003  -4.769179000000002e-003  -1.901058500000000e-002
  endloop
endfacet
facet normal  -9.929171738907155e-001  -1.187825545805921e-001   2.488075598392398e-003
  outer loop
    vertex  -2.428383800000003e-003  -5.014183500000003e-003  -1.914878900000000e-002
    vertex  -2.490464100000004e-003  -4.497353500000001e-003  -1.924935200000000e-002
    vertex  -2.410458400000004e-003  -5.172915800000002e-003  -1.957329000000000e-002
  endloop
endfacet
facet normal  -2.255755330947274e-001   3.993777473651400e-001  -8.886017633217795e-001
  outer loop
    vertex  -1.459045000000003e-003  -4.613226700000001e-003  -1.956326100000000e-002
    vertex  -2.410458400000004e-003  -5.172915800000002e-003  -1.957329000000000e-002
    vertex  -2.490464100000004e-003  -4.497353500000001e-003  -1.924935200000000e-002
  endloop
endfacet
facet normal  -4.505812037777899e-001  -1.093253592637524e-001  -8.860161085578575e-001
  outer loop
    vertex   5.526694799999756e-005  -4.646252400000002e-003  -1.890249600000000e-002
    vertex   2.499056399999744e-005  -5.448798600000001e-003  -1.878807300000000e-002
    vertex  -1.065870000000003e-003  -4.939734500000003e-003  -1.829613200000000e-002
  endloop
endfacet
facet normal   8.615090719436542e-001  -3.277737099848139e-001   3.877712134771928e-001
  outer loop
    vertex  -1.629592300000002e-003  -5.096091400000002e-003  -1.959251100000000e-002
    vertex  -1.459045000000003e-003  -4.613226700000001e-003  -1.956326100000000e-002
    vertex  -1.711434300000003e-003  -4.857966700000002e-003  -1.920940200000000e-002
  endloop
endfacet
facet normal  -3.157833507515864e-002   7.154389254887859e-002  -9.969374504916724e-001
  outer loop
    vertex  -2.410458400000004e-003  -5.172915800000002e-003  -1.957329000000000e-002
    vertex  -1.459045000000003e-003  -4.613226700000001e-003  -1.956326100000000e-002
    vertex  -1.629592300000002e-003  -5.096091400000002e-003  -1.959251100000000e-002
  endloop
endfacet
facet normal   3.723100624951429e-001  -1.447512865954735e-001  -9.167509380381446e-001
  outer loop
    vertex   2.003445799999998e-003  -6.436357300000002e-003  -1.782865300000000e-002
    vertex   2.499056399999744e-005  -5.448798600000001e-003  -1.878807300000000e-002
    vertex   5.526694799999756e-005  -4.646252400000002e-003  -1.890249600000000e-002
  endloop
endfacet
facet normal  -9.044880570044811e-001  -1.300422596850862e-001   4.061900607255857e-001
  outer loop
    vertex  -9.836525700000003e-003  -3.545977900000002e-003   2.980822699999994e-003
    vertex  -7.916286600000001e-003  -1.340039400000001e-002   4.101831899999994e-003
    vertex  -5.091560500000002e-003  -8.203347200000002e-003   1.205566200000000e-002
  endloop
endfacet
facet normal  -9.819059903324262e-001  -1.825258053050562e-001  -5.044756234981199e-002
  outer loop
    vertex  -8.744304100000001e-003  -1.333854100000000e-002   2.363216099999994e-003
    vertex  -1.035657200000000e-002  -3.383266700000002e-003  -2.275242900000005e-003
    vertex  -8.512717700000002e-003  -1.221128900000000e-002  -6.222900500000005e-003
  endloop
endfacet
facet normal   9.897656942521376e-001  -6.812738311529819e-002   1.253895137220240e-001
  outer loop
    vertex   8.276489600000003e-003   2.302054100000001e-003   1.051151400000000e-002
    vertex   7.754092600000003e-003  -1.480423100000000e-002   5.340780100000003e-003
    vertex   9.444233000000002e-003  -6.481034200000001e-003  -3.478181999999996e-003
  endloop
endfacet
facet normal  -8.154423575433158e-002  -6.203746546247660e-001  -7.800550144152940e-001
  outer loop
    vertex  -2.390975600000003e-003  -4.890339900000002e-003  -1.829543300000000e-002
    vertex  -4.888556400000002e-003  -5.751187400000002e-003  -1.734971600000000e-002
    vertex  -3.119181400000003e-003  -4.400842800000002e-003  -1.860860400000000e-002
  endloop
endfacet
facet normal  -4.469007279991746e-001  -8.476963488802888e-001  -2.858157438085515e-001
  outer loop
    vertex  -3.119181400000003e-003  -4.400842800000002e-003  -1.860860400000000e-002
    vertex  -2.163421600000003e-003  -4.769179000000002e-003  -1.901058500000000e-002
    vertex  -2.390975600000003e-003  -4.890339900000002e-003  -1.829543300000000e-002
  endloop
endfacet
facet normal  -4.552419418114909e-001  -8.302417703123665e-001  -3.216416907745185e-001
  outer loop
    vertex  -3.119181400000003e-003  -4.400842800000002e-003  -1.860860400000000e-002
    vertex  -2.490464100000004e-003  -4.497353500000001e-003  -1.924935200000000e-002
    vertex  -2.163421600000003e-003  -4.769179000000002e-003  -1.901058500000000e-002
  endloop
endfacet
facet normal  -5.312088180249035e-001   9.989585743041878e-002   8.413310937560946e-001
  outer loop
    vertex  -2.490464100000004e-003  -4.497353500000001e-003  -1.924935200000000e-002
    vertex  -2.428383800000003e-003  -5.014183500000003e-003  -1.914878900000000e-002
    vertex  -2.163421600000003e-003  -4.769179000000002e-003  -1.901058500000000e-002
  endloop
endfacet
facet normal  -3.720930909198053e-002  -9.973202177297348e-001  -6.299087731101909e-002
  outer loop
    vertex  -1.065870000000003e-003  -4.939734500000003e-003  -1.829613200000000e-002
    vertex  -2.390975600000003e-003  -4.890339900000002e-003  -1.829543300000000e-002
    vertex  -1.711434300000003e-003  -4.857966700000002e-003  -1.920940200000000e-002
  endloop
endfacet
facet normal  -3.717788099310507e-002  -9.962657565213483e-001  -7.792526899413226e-002
  outer loop
    vertex  -1.586489600000002e-003  -4.950853500000001e-003  -1.790559100000000e-002
    vertex  -2.390975600000003e-003  -4.890339900000002e-003  -1.829543300000000e-002
    vertex  -1.065870000000003e-003  -4.939734500000003e-003  -1.829613200000000e-002
  endloop
endfacet
facet normal  -2.910249249037369e-001  -9.237180590950160e-001  -2.490972508610052e-001
  outer loop
    vertex  -2.163421600000003e-003  -4.769179000000002e-003  -1.901058500000000e-002
    vertex  -1.711434300000003e-003  -4.857966700000002e-003  -1.920940200000000e-002
    vertex  -2.390975600000003e-003  -4.890339900000002e-003  -1.829543300000000e-002
  endloop
endfacet
facet normal   1.496788885179066e-001  -9.697882445726708e-001  -1.926317497732440e-001
  outer loop
    vertex  -1.711434300000003e-003  -4.857966700000002e-003  -1.920940200000000e-002
    vertex   5.526694799999756e-005  -4.646252400000002e-003  -1.890249600000000e-002
    vertex  -1.065870000000003e-003  -4.939734500000003e-003  -1.829613200000000e-002
  endloop
endfacet
facet normal   1.847026382909413e-001  -8.650070883509559e-001  -4.665272473403535e-001
  outer loop
    vertex  -1.459045000000003e-003  -4.613226700000001e-003  -1.956326100000000e-002
    vertex   5.526694799999756e-005  -4.646252400000002e-003  -1.890249600000000e-002
    vertex  -1.711434300000003e-003  -4.857966700000002e-003  -1.920940200000000e-002
  endloop
endfacet
facet normal  -9.887430275907908e-001  -1.162232824707302e-001   9.423043034140162e-002
  outer loop
    vertex  -8.744304100000001e-003  -1.333854100000000e-002   2.363216099999994e-003
    vertex  -9.836525700000003e-003  -3.545977900000002e-003   2.980822699999994e-003
    vertex  -1.035657200000000e-002  -3.383266700000002e-003  -2.275242900000005e-003
  endloop
endfacet
facet normal   8.319165979170742e-001  -3.138539995327280e-001   4.576138558734770e-001
  outer loop
    vertex   7.754092600000003e-003  -1.480423100000000e-002   5.340780100000003e-003
    vertex   3.824561800000003e-003  -2.310361199999999e-003   2.105335700000001e-002
    vertex   3.486542300000002e-003  -1.232598100000000e-002   1.479865500000000e-002
  endloop
endfacet
facet normal   1.958523502637956e-002  -4.985593874256791e-001  -8.666342687539496e-001
  outer loop
    vertex   4.054528199999999e-003  -5.682792000000003e-003  -1.821581300000000e-002
    vertex   2.003445799999998e-003  -6.436357300000002e-003  -1.782865300000000e-002
    vertex   5.526694799999756e-005  -4.646252400000002e-003  -1.890249600000000e-002
  endloop
endfacet
facet normal  -8.465009931136492e-001  -2.602825818613341e-001   4.644233480750118e-001
  outer loop
    vertex  -5.091560500000002e-003  -8.203347200000002e-003   1.205566200000000e-002
    vertex  -2.993494699999999e-003  -1.076174700000000e-002   1.444595500000000e-002
    vertex  -1.718242799999998e-003  -2.488878999999999e-003   2.140681400000000e-002
  endloop
endfacet
facet normal  -9.590673376408794e-001  -1.558606738214561e-001  -2.364260819502732e-001
  outer loop
    vertex  -7.897909700000002e-003  -6.856861500000002e-003  -9.958937800000003e-003
    vertex  -1.035657200000000e-002  -3.383266700000002e-003  -2.275242900000005e-003
    vertex  -5.696614700000004e-003  -9.048369700000003e-003  -1.744381500000000e-002
  endloop
endfacet
facet normal  -6.668406949584882e-001   2.061548233159260e-001  -7.161170828648482e-001
  outer loop
    vertex  -4.888556400000002e-003  -5.751187400000002e-003  -1.734971600000000e-002
    vertex  -5.136853100000003e-003  -1.930460500000002e-003  -1.601859900000001e-002
    vertex  -3.119181400000003e-003  -4.400842800000002e-003  -1.860860400000000e-002
  endloop
endfacet
facet normal  -3.069795971870873e-001  -2.320606155444920e-001  -9.229904645357746e-001
  outer loop
    vertex  -5.926521800000027e-004  -1.583596500000001e-003  -2.061313400000000e-002
    vertex  -1.459045000000003e-003  -4.613226700000001e-003  -1.956326100000000e-002
    vertex  -2.490464100000004e-003  -4.497353500000001e-003  -1.924935200000000e-002
  endloop
endfacet
facet normal   3.600202765071939e-001  -3.957288252156147e-001  -8.448574420558495e-001
  outer loop
    vertex   5.526694799999756e-005  -4.646252400000002e-003  -1.890249600000000e-002
    vertex  -1.459045000000003e-003  -4.613226700000001e-003  -1.956326100000000e-002
    vertex  -5.926521800000027e-004  -1.583596500000001e-003  -2.061313400000000e-002
  endloop
endfacet
facet normal   4.189461915443895e-001  -3.484745233267209e-001  -8.384805276109080e-001
  outer loop
    vertex   4.054528199999999e-003  -5.682792000000003e-003  -1.821581300000000e-002
    vertex   3.535457899999998e-003  -8.402264200000011e-004  -2.048774800000000e-002
    vertex   6.564132400000000e-003  -2.737494000000001e-003  -1.818596400000000e-002
  endloop
endfacet
facet normal  -6.986423898073554e-001   1.253491628866463e-001  -7.044049960980432e-001
  outer loop
    vertex  -5.926521800000027e-004  -1.583596500000001e-003  -2.061313400000000e-002
    vertex  -2.490464100000004e-003  -4.497353500000001e-003  -1.924935200000000e-002
    vertex  -3.119181400000003e-003  -4.400842800000002e-003  -1.860860400000000e-002
  endloop
endfacet
facet normal   4.670437854062439e-002  -4.201667645870736e-001  -9.062442225810682e-001
  outer loop
    vertex   4.054528199999999e-003  -5.682792000000003e-003  -1.821581300000000e-002
    vertex   5.526694799999756e-005  -4.646252400000002e-003  -1.890249600000000e-002
    vertex   3.535457899999998e-003  -8.402264200000011e-004  -2.048774800000000e-002
  endloop
endfacet
facet normal  -7.089507947722894e-001   1.446559337083244e-001  -6.902633058729925e-001
  outer loop
    vertex  -5.926521800000027e-004  -1.583596500000001e-003  -2.061313400000000e-002
    vertex  -3.119181400000003e-003  -4.400842800000002e-003  -1.860860400000000e-002
    vertex  -5.136853100000003e-003  -1.930460500000002e-003  -1.601859900000001e-002
  endloop
endfacet
facet normal   9.941312730964055e-001  -3.228443404431551e-002   1.032507974311002e-001
  outer loop
    vertex   9.444233000000002e-003  -6.481034200000001e-003  -3.478181999999996e-003
    vertex   9.822147900000000e-003   2.610225200000001e-003  -4.274213199999994e-003
    vertex   8.276489600000003e-003   2.302054100000001e-003   1.051151400000000e-002
  endloop
endfacet
facet normal   1.106911193935236e-001  -4.666895501096642e-001  -8.774670021749239e-001
  outer loop
    vertex  -5.926521800000027e-004  -1.583596500000001e-003  -2.061313400000000e-002
    vertex   3.535457899999998e-003  -8.402264200000011e-004  -2.048774800000000e-002
    vertex   5.526694799999756e-005  -4.646252400000002e-003  -1.890249600000000e-002
  endloop
endfacet
facet normal  -9.543350595166852e-001   1.399736704709863e-002  -2.984102342297157e-001
  outer loop
    vertex  -1.035657200000000e-002  -3.383266700000002e-003  -2.275242900000005e-003
    vertex  -7.949922200000004e-003   2.555275199999968e-005  -9.811967600000004e-003
    vertex  -5.696614700000004e-003  -9.048369700000003e-003  -1.744381500000000e-002
  endloop
endfacet
facet normal  -8.340298658832444e-001   2.188540511231892e-001  -5.064554147422514e-001
  outer loop
    vertex  -7.949922200000004e-003   2.555275199999968e-005  -9.811967600000004e-003
    vertex  -4.888556400000002e-003  -5.751187400000002e-003  -1.734971600000000e-002
    vertex  -5.696614700000004e-003  -9.048369700000003e-003  -1.744381500000000e-002
  endloop
endfacet
facet normal   9.325163862519726e-001  -1.302845387461976e-001   3.368072569515870e-001
  outer loop
    vertex   3.824561800000003e-003  -2.310361199999999e-003   2.105335700000001e-002
    vertex   7.754092600000003e-003  -1.480423100000000e-002   5.340780100000003e-003
    vertex   8.276489600000003e-003   2.302054100000001e-003   1.051151400000000e-002
  endloop
endfacet
facet normal  -6.428127000167474e-001   4.764801318881820e-001  -5.997987300861847e-001
  outer loop
    vertex   3.134131499999978e-004   7.621535299999998e-004  -1.972071300000000e-002
    vertex  -5.926521800000027e-004  -1.583596500000001e-003  -2.061313400000000e-002
    vertex  -5.136853100000003e-003  -1.930460500000002e-003  -1.601859900000001e-002
  endloop
endfacet
facet normal   9.878087351575499e-001  -5.385140170130476e-002  -1.460613887420156e-001
  outer loop
    vertex   8.591403300000002e-003  -4.217525000000002e-003  -1.008037700000000e-002
    vertex   9.822147900000000e-003   2.610225200000001e-003  -4.274213199999994e-003
    vertex   9.444233000000002e-003  -6.481034200000001e-003  -3.478181999999996e-003
  endloop
endfacet
facet normal  -3.807488357406409e-002   3.681342565863716e-001  -9.289927192225033e-001
  outer loop
    vertex   3.535457899999998e-003  -8.402264200000011e-004  -2.048774800000000e-002
    vertex  -5.926521800000027e-004  -1.583596500000001e-003  -2.061313400000000e-002
    vertex   3.134131499999978e-004   7.621535299999998e-004  -1.972071300000000e-002
  endloop
endfacet
facet normal   5.373927221327899e-001  -1.491514939382239e-001  -8.300378871200435e-001
  outer loop
    vertex   3.535457899999998e-003  -8.402264200000011e-004  -2.048774800000000e-002
    vertex   6.666697599999999e-003   3.232925400000000e-003  -1.919239900000000e-002
    vertex   6.564132400000000e-003  -2.737494000000001e-003  -1.818596400000000e-002
  endloop
endfacet
facet normal   9.658255742868164e-001  -5.913180520283302e-002  -2.523576621919680e-001
  outer loop
    vertex   8.591403300000002e-003  -4.217525000000002e-003  -1.008037700000000e-002
    vertex   6.564132400000000e-003  -2.737494000000001e-003  -1.818596400000000e-002
    vertex   6.666697599999999e-003   3.232925400000000e-003  -1.919239900000000e-002
  endloop
endfacet
facet normal  -9.945374553867972e-001   3.189188225316415e-002   9.938892130969412e-002
  outer loop
    vertex  -9.836525700000003e-003  -3.545977900000002e-003   2.980822699999994e-003
    vertex  -9.809487500000000e-003   4.396596000000000e-003   7.027707199999952e-004
    vertex  -1.035657200000000e-002  -3.383266700000002e-003  -2.275242900000005e-003
  endloop
endfacet
facet normal  -8.954242350852039e-001   9.346265934258592e-002  -4.352932006483554e-001
  outer loop
    vertex  -7.949922200000004e-003   2.555275199999968e-005  -9.811967600000004e-003
    vertex  -5.136853100000003e-003  -1.930460500000002e-003  -1.601859900000001e-002
    vertex  -4.888556400000002e-003  -5.751187400000002e-003  -1.734971600000000e-002
  endloop
endfacet
facet normal  -9.523958780785909e-001   8.147829024162008e-002   2.937743685861856e-001
  outer loop
    vertex  -8.364603899999974e-004   4.940140100000001e-003   2.220505300000000e-002
    vertex  -5.091560500000002e-003  -8.203347200000002e-003   1.205566200000000e-002
    vertex  -1.718242799999998e-003  -2.488878999999999e-003   2.140681400000000e-002
  endloop
endfacet
facet normal  -9.591438816831295e-001   1.574296272505873e-001  -2.350721733714135e-001
  outer loop
    vertex  -9.809487500000000e-003   4.396596000000000e-003   7.027707199999952e-004
    vertex  -7.949922200000004e-003   2.555275199999968e-005  -9.811967600000004e-003
    vertex  -1.035657200000000e-002  -3.383266700000002e-003  -2.275242900000005e-003
  endloop
endfacet
facet normal  -2.059245385075367e-001   5.365068961769517e-002  -9.770960484742550e-001
  outer loop
    vertex   3.134131499999978e-004   7.621535299999998e-004  -1.972071300000000e-002
    vertex   2.595411800000000e-003   6.757108500000002e-003  -1.987247499999999e-002
    vertex   3.535457899999998e-003  -8.402264200000011e-004  -2.048774800000000e-002
  endloop
endfacet
facet normal  -5.957679739077825e-001   1.125513748080235e-001  -7.952312300800566e-001
  outer loop
    vertex  -3.298265400000002e-003   1.104256900000000e-002  -1.555991400000000e-002
    vertex   3.134131499999978e-004   7.621535299999998e-004  -1.972071300000000e-002
    vertex  -5.136853100000003e-003  -1.930460500000002e-003  -1.601859900000001e-002
  endloop
endfacet
facet normal   9.697102573048636e-001   3.121238525909876e-002  -2.422556581055908e-001
  outer loop
    vertex   8.080037300000002e-003   9.469234400000002e-003  -1.036388099999999e-002
    vertex   9.822147900000000e-003   2.610225200000001e-003  -4.274213199999994e-003
    vertex   8.591403300000002e-003  -4.217525000000002e-003  -1.008037700000000e-002
  endloop
endfacet
facet normal   9.293210382898414e-001  -6.701259120864614e-002   3.631414606064616e-001
  outer loop
    vertex   8.276489600000003e-003   2.302054100000001e-003   1.051151400000000e-002
    vertex   6.093941600000004e-003   5.399290900000002e-003   1.666845800000000e-002
    vertex   3.824561800000003e-003  -2.310361199999999e-003   2.105335700000001e-002
  endloop
endfacet
facet normal  -8.419197358711562e-001   1.514144901905431e-001   5.179235566287564e-001
  outer loop
    vertex  -9.836525700000003e-003  -3.545977900000002e-003   2.980822699999994e-003
    vertex  -5.091560500000002e-003  -8.203347200000002e-003   1.205566200000000e-002
    vertex  -9.809487500000000e-003   4.396596000000000e-003   7.027707199999952e-004
  endloop
endfacet
facet normal   7.890561618601644e-001   1.113474491863117e-001   6.041457762744088e-001
  outer loop
    vertex   6.093941600000004e-003   5.399290900000002e-003   1.666845800000000e-002
    vertex   3.105475100000003e-003   5.978518600000002e-003   2.046484700000000e-002
    vertex   3.824561800000003e-003  -2.310361199999999e-003   2.105335700000001e-002
  endloop
endfacet
facet normal   2.551519737322051e-001   1.093731360700227e-001  -9.606950543261730e-001
  outer loop
    vertex   2.595411800000000e-003   6.757108500000002e-003  -1.987247499999999e-002
    vertex   6.666697599999999e-003   3.232925400000000e-003  -1.919239900000000e-002
    vertex   3.535457899999998e-003  -8.402264200000011e-004  -2.048774800000000e-002
  endloop
endfacet
facet normal  -9.073560488518540e-001   2.631194769518121e-002  -4.195386537858438e-001
  outer loop
    vertex  -7.949922200000004e-003   2.555275199999968e-005  -9.811967600000004e-003
    vertex  -7.554207900000002e-003   1.595580600000000e-002  -9.668709700000003e-003
    vertex  -5.136853100000003e-003  -1.930460500000002e-003  -1.601859900000001e-002
  endloop
endfacet
facet normal  -7.495445318489292e-001   1.291829110383409e-001  -6.492262858749864e-001
  outer loop
    vertex  -7.554207900000002e-003   1.595580600000000e-002  -9.668709700000003e-003
    vertex  -3.298265400000002e-003   1.104256900000000e-002  -1.555991400000000e-002
    vertex  -5.136853100000003e-003  -1.930460500000002e-003  -1.601859900000001e-002
  endloop
endfacet
facet normal   6.689168734887682e-002  -1.144402598577123e-001   9.911755288985495e-001
  outer loop
    vertex   3.824561800000003e-003  -2.310361199999999e-003   2.105335700000001e-002
    vertex  -8.364603899999974e-004   4.940140100000001e-003   2.220505300000000e-002
    vertex  -1.718242799999998e-003  -2.488878999999999e-003   2.140681400000000e-002
  endloop
endfacet
facet normal  -9.869213784886916e-001  -5.883683422740182e-002  -1.500813766597240e-001
  outer loop
    vertex  -9.809487500000000e-003   4.396596000000000e-003   7.027707199999952e-004
    vertex  -9.706481400000003e-003   1.452692500000000e-002  -3.946010000000003e-003
    vertex  -7.949922200000004e-003   2.555275199999968e-005  -9.811967600000004e-003
  endloop
endfacet
facet normal  -4.993134424052342e-001   1.685508637079805e-001  -8.498686325407761e-001
  outer loop
    vertex   2.595411800000000e-003   6.757108500000002e-003  -1.987247499999999e-002
    vertex   3.134131499999978e-004   7.621535299999998e-004  -1.972071300000000e-002
    vertex  -3.298265400000002e-003   1.104256900000000e-002  -1.555991400000000e-002
  endloop
endfacet
facet normal   9.829915011015875e-001   3.298437922421053e-002  -1.806647156730979e-001
  outer loop
    vertex   8.080037300000002e-003   9.469234400000002e-003  -1.036388099999999e-002
    vertex   8.591403300000002e-003  -4.217525000000002e-003  -1.008037700000000e-002
    vertex   6.666697599999999e-003   3.232925400000000e-003  -1.919239900000000e-002
  endloop
endfacet
facet normal   9.537251654633551e-001  -2.856923951687447e-001   9.374520843564049e-002
  outer loop
    vertex   9.822147900000000e-003   2.610225200000001e-003  -4.274213199999994e-003
    vertex   9.738980800000005e-003   6.828616800000003e-003   9.427617300000005e-003
    vertex   8.276489600000003e-003   2.302054100000001e-003   1.051151400000000e-002
  endloop
endfacet
facet normal   3.986547745641253e-001   2.928302388911451e-001  -8.690942537539765e-001
  outer loop
    vertex   2.595411800000000e-003   6.757108500000002e-003  -1.987247499999999e-002
    vertex   6.197815799999999e-003   7.061011200000001e-003  -1.811765100000000e-002
    vertex   6.666697599999999e-003   3.232925400000000e-003  -1.919239900000000e-002
  endloop
endfacet
facet normal  -9.378203920026724e-001   2.640840819572576e-002  -3.461148773464119e-001
  outer loop
    vertex  -9.706481400000003e-003   1.452692500000000e-002  -3.946010000000003e-003
    vertex  -7.554207900000002e-003   1.595580600000000e-002  -9.668709700000003e-003
    vertex  -7.949922200000004e-003   2.555275199999968e-005  -9.811967600000004e-003
  endloop
endfacet
facet normal   9.373076968488695e-001   1.957553971774558e-001  -2.883298560741924e-001
  outer loop
    vertex   6.197815799999999e-003   7.061011200000001e-003  -1.811765100000000e-002
    vertex   8.080037300000002e-003   9.469234400000002e-003  -1.036388099999999e-002
    vertex   6.666697599999999e-003   3.232925400000000e-003  -1.919239900000000e-002
  endloop
endfacet
facet normal   8.915364261546296e-001  -1.895402337380214e-001   4.113846139976153e-001
  outer loop
    vertex   9.738980800000005e-003   6.828616800000003e-003   9.427617300000005e-003
    vertex   6.093941600000004e-003   5.399290900000002e-003   1.666845800000000e-002
    vertex   8.276489600000003e-003   2.302054100000001e-003   1.051151400000000e-002
  endloop
endfacet
facet normal   3.801230464945579e-001   9.827554371483202e-002   9.197001614826705e-001
  outer loop
    vertex   3.105475100000003e-003   5.978518600000002e-003   2.046484700000000e-002
    vertex  -8.364603899999974e-004   4.940140100000001e-003   2.220505300000000e-002
    vertex   3.824561800000003e-003  -2.310361199999999e-003   2.105335700000001e-002
  endloop
endfacet
facet normal   9.980660064644268e-001   6.085653293487836e-002  -1.267789964059124e-002
  outer loop
    vertex   9.582136800000004e-003   7.448411100000003e-003   5.523418800000579e-005
    vertex   9.738980800000005e-003   6.828616800000003e-003   9.427617300000005e-003
    vertex   9.822147900000000e-003   2.610225200000001e-003  -4.274213199999994e-003
  endloop
endfacet
facet normal   9.823253520256235e-001   1.495101732960660e-001  -1.126215381208901e-001
  outer loop
    vertex   8.080037300000002e-003   9.469234400000002e-003  -1.036388099999999e-002
    vertex   9.582136800000004e-003   7.448411100000003e-003   5.523418800000579e-005
    vertex   9.822147900000000e-003   2.610225200000001e-003  -4.274213199999994e-003
  endloop
endfacet
facet normal  -9.228791334726062e-001   1.410814926675330e-003   3.850871519566629e-001
  outer loop
    vertex  -8.364603899999974e-004   4.940140100000001e-003   2.220505300000000e-002
    vertex  -9.809487500000000e-003   4.396596000000000e-003   7.027707199999952e-004
    vertex  -5.091560500000002e-003  -8.203347200000002e-003   1.205566200000000e-002
  endloop
endfacet
facet normal   3.270936501849180e-001   5.519306805574289e-001  -7.670607980258930e-001
  outer loop
    vertex   2.595411800000000e-003   6.757108500000002e-003  -1.987247499999999e-002
    vertex   2.213424500000000e-003   1.283684800000000e-002  -1.566075000000000e-002
    vertex   6.197815799999999e-003   7.061011200000001e-003  -1.811765100000000e-002
  endloop
endfacet
facet normal  -1.940233712839567e-001   5.503665503843329e-001  -8.120662482911462e-001
  outer loop
    vertex   2.213424500000000e-003   1.283684800000000e-002  -1.566075000000000e-002
    vertex   2.595411800000000e-003   6.757108500000002e-003  -1.987247499999999e-002
    vertex  -3.298265400000002e-003   1.104256900000000e-002  -1.555991400000000e-002
  endloop
endfacet
facet normal   8.316970793944566e-001   5.547626325905196e-001   2.276817094030596e-002
  outer loop
    vertex   7.123046600000005e-003   1.074298900000000e-002   9.608457800000005e-003
    vertex   9.738980800000005e-003   6.828616800000003e-003   9.427617300000005e-003
    vertex   9.582136800000004e-003   7.448411100000003e-003   5.523418800000579e-005
  endloop
endfacet
facet normal  -9.197157308739918e-001  -7.341929230876133e-002   3.856586338976477e-001
  outer loop
    vertex  -9.809487500000000e-003   4.396596000000000e-003   7.027707199999952e-004
    vertex  -8.364603899999974e-004   4.940140100000001e-003   2.220505300000000e-002
    vertex  -4.779998699999999e-003   1.574501400000001e-002   1.485749800000000e-002
  endloop
endfacet
facet normal   7.144252947032309e-001   5.038614398136718e-001   4.855101932576649e-001
  outer loop
    vertex   7.123046600000005e-003   1.074298900000000e-002   9.608457800000005e-003
    vertex   3.105475100000003e-003   5.978518600000002e-003   2.046484700000000e-002
    vertex   6.093941600000004e-003   5.399290900000002e-003   1.666845800000000e-002
  endloop
endfacet
facet normal   8.025564135313857e-001   5.285672298259334e-001   2.766222815569604e-001
  outer loop
    vertex   9.582136800000004e-003   7.448411100000003e-003   5.523418800000579e-005
    vertex   7.503539800000001e-003   1.147866200000000e-002  -1.615156199999995e-003
    vertex   6.015153600000000e-003   1.117259200000001e-002   3.287892300000004e-003
  endloop
endfacet
facet normal   6.885351540130180e-001   7.216558900880705e-001  -7.163880226151292e-002
  outer loop
    vertex   6.015153600000000e-003   1.117259200000001e-002   3.287892300000004e-003
    vertex   7.123046600000005e-003   1.074298900000000e-002   9.608457800000005e-003
    vertex   9.582136800000004e-003   7.448411100000003e-003   5.523418800000579e-005
  endloop
endfacet
facet normal   8.950799554052706e-001   4.438315031434445e-001  -4.295893677838330e-002
  outer loop
    vertex   8.080037300000002e-003   9.469234400000002e-003  -1.036388099999999e-002
    vertex   7.503539800000001e-003   1.147866200000000e-002  -1.615156199999995e-003
    vertex   9.582136800000004e-003   7.448411100000003e-003   5.523418800000579e-005
  endloop
endfacet
facet normal   7.443334369208430e-001   4.757806711273480e-001   4.686155008780821e-001
  outer loop
    vertex   9.738980800000005e-003   6.828616800000003e-003   9.427617300000005e-003
    vertex   7.123046600000005e-003   1.074298900000000e-002   9.608457800000005e-003
    vertex   6.093941600000004e-003   5.399290900000002e-003   1.666845800000000e-002
  endloop
endfacet
facet normal   7.569474627021517e-001   5.490976910412060e-001  -3.542912141191065e-001
  outer loop
    vertex   4.027783899999999e-003   1.326841900000000e-002  -1.313340900000000e-002
    vertex   8.080037300000002e-003   9.469234400000002e-003  -1.036388099999999e-002
    vertex   6.197815799999999e-003   7.061011200000001e-003  -1.811765100000000e-002
  endloop
endfacet
facet normal   2.366523976972360e-001   4.988685801843098e-001   8.337420358654348e-001
  outer loop
    vertex  -8.364603899999974e-004   4.940140100000001e-003   2.220505300000000e-002
    vertex   3.105475100000003e-003   5.978518600000002e-003   2.046484700000000e-002
    vertex  -8.521260499999978e-004   1.389659700000000e-002   1.685041400000000e-002
  endloop
endfacet
facet normal   5.808706475396759e-001   6.233694935721306e-001  -5.234498689563913e-001
  outer loop
    vertex   4.027783899999999e-003   1.326841900000000e-002  -1.313340900000000e-002
    vertex   6.197815799999999e-003   7.061011200000001e-003  -1.811765100000000e-002
    vertex   2.213424500000000e-003   1.283684800000000e-002  -1.566075000000000e-002
  endloop
endfacet
facet normal  -1.906387994789826e-001   5.034832103021427e-001   8.427108074998567e-001
  outer loop
    vertex  -8.364603899999974e-004   4.940140100000001e-003   2.220505300000000e-002
    vertex  -8.521260499999978e-004   1.389659700000000e-002   1.685041400000000e-002
    vertex  -4.779998699999999e-003   1.574501400000001e-002   1.485749800000000e-002
  endloop
endfacet
facet normal   6.677591724417068e-001   5.584324436828886e-001   4.921898957336736e-001
  outer loop
    vertex   7.123046600000005e-003   1.074298900000000e-002   9.608457800000005e-003
    vertex  -8.521260499999978e-004   1.389659700000000e-002   1.685041400000000e-002
    vertex   3.105475100000003e-003   5.978518600000002e-003   2.046484700000000e-002
  endloop
endfacet
facet normal   7.188581507568181e-001   6.863545224718847e-001  -1.102743332461318e-001
  outer loop
    vertex   7.503539800000001e-003   1.147866200000000e-002  -1.615156199999995e-003
    vertex   8.080037300000002e-003   9.469234400000002e-003  -1.036388099999999e-002
    vertex   4.027783899999999e-003   1.326841900000000e-002  -1.313340900000000e-002
  endloop
endfacet
facet normal   6.033353753578746e-002   6.326707771805014e-001  -7.720670644123074e-001
  outer loop
    vertex  -5.416235900000003e-003   1.571701800000000e-002  -1.189494400000000e-002
    vertex   1.497982199999995e-004   1.434840300000000e-002  -1.258149600000000e-002
    vertex  -3.298265400000002e-003   1.104256900000000e-002  -1.555991400000000e-002
  endloop
endfacet
facet normal  -2.652687006778742e-001   7.832574610705110e-001  -5.622635201736366e-001
  outer loop
    vertex   2.213424500000000e-003   1.283684800000000e-002  -1.566075000000000e-002
    vertex  -3.298265400000002e-003   1.104256900000000e-002  -1.555991400000000e-002
    vertex   1.497982199999995e-004   1.434840300000000e-002  -1.258149600000000e-002
  endloop
endfacet
facet normal  -6.903697381042572e-001   2.260247037310828e-001  -6.872426485697287e-001
  outer loop
    vertex  -5.416235900000003e-003   1.571701800000000e-002  -1.189494400000000e-002
    vertex  -3.298265400000002e-003   1.104256900000000e-002  -1.555991400000000e-002
    vertex  -7.554207900000002e-003   1.595580600000000e-002  -9.668709700000003e-003
  endloop
endfacet
facet normal   3.119954115556410e-001   9.376436801073725e-001   1.532422667638714e-001
  outer loop
    vertex   7.503539800000001e-003   1.147866200000000e-002  -1.615156199999995e-003
    vertex   9.064974099999996e-004   1.483850500000000e-002  -8.741705699999996e-003
    vertex   6.015153600000000e-003   1.117259200000001e-002   3.287892300000004e-003
  endloop
endfacet
facet normal   2.135509011320682e-001   9.259645731037630e-001  -3.114251466764487e-001
  outer loop
    vertex   4.027783899999999e-003   1.326841900000000e-002  -1.313340900000000e-002
    vertex   2.213424500000000e-003   1.283684800000000e-002  -1.566075000000000e-002
    vertex   1.497982199999995e-004   1.434840300000000e-002  -1.258149600000000e-002
  endloop
endfacet
facet normal  -9.975919264819729e-001   3.704954626486327e-002   5.863172639069852e-002
  outer loop
    vertex  -9.301463100000003e-003   1.521890300000000e-002   2.507927799999996e-003
    vertex  -9.706481400000003e-003   1.452692500000000e-002  -3.946010000000003e-003
    vertex  -9.809487500000000e-003   4.396596000000000e-003   7.027707199999952e-004
  endloop
endfacet
facet normal   4.518965643502202e-001   8.920675076226207e-001   2.248771316264919e-003
  outer loop
    vertex   9.064974099999996e-004   1.483850500000000e-002  -8.741705699999996e-003
    vertex   7.503539800000001e-003   1.147866200000000e-002  -1.615156199999995e-003
    vertex   4.027783899999999e-003   1.326841900000000e-002  -1.313340900000000e-002
  endloop
endfacet
facet normal   2.419188362388715e-001   9.553566789735905e-001  -1.696139517061680e-001
  outer loop
    vertex   1.497982199999995e-004   1.434840300000000e-002  -1.258149600000000e-002
    vertex   9.064974099999996e-004   1.483850500000000e-002  -8.741705699999996e-003
    vertex   4.027783899999999e-003   1.326841900000000e-002  -1.313340900000000e-002
  endloop
endfacet
facet normal  -9.387735394183616e-001  -1.335686176346970e-002   3.442758137478634e-001
  outer loop
    vertex  -4.779998699999999e-003   1.574501400000001e-002   1.485749800000000e-002
    vertex  -9.301463100000003e-003   1.521890300000000e-002   2.507927799999996e-003
    vertex  -9.809487500000000e-003   4.396596000000000e-003   7.027707199999952e-004
  endloop
endfacet
facet normal   5.098859236821455e-001   8.596853444143298e-001  -3.094274438411474e-002
  outer loop
    vertex   6.015153600000000e-003   1.117259200000001e-002   3.287892300000004e-003
    vertex   3.760657300000019e-004   1.485741500000001e-002   1.274073200000000e-002
    vertex   7.123046600000005e-003   1.074298900000000e-002   9.608457800000005e-003
  endloop
endfacet
facet normal   4.372135381818514e-001   8.772615815934426e-001  -1.981323787034285e-001
  outer loop
    vertex  -3.318278800000002e-003   1.728358100000000e-002  -7.238458799999998e-003
    vertex   9.064974099999996e-004   1.483850500000000e-002  -8.741705699999996e-003
    vertex   1.497982199999995e-004   1.434840300000000e-002  -1.258149600000000e-002
  endloop
endfacet
facet normal   5.120881215236224e-001   8.578083235090166e-001   4.393900218550796e-002
  outer loop
    vertex  -3.318278800000002e-003   1.728358100000000e-002  -7.238458799999998e-003
    vertex   6.015153600000000e-003   1.117259200000001e-002   3.287892300000004e-003
    vertex   9.064974099999996e-004   1.483850500000000e-002  -8.741705699999996e-003
  endloop
endfacet
facet normal   6.005325585764767e-001   7.199962517121997e-001   3.478017303148059e-001
  outer loop
    vertex   7.123046600000005e-003   1.074298900000000e-002   9.608457800000005e-003
    vertex   3.760657300000019e-004   1.485741500000001e-002   1.274073200000000e-002
    vertex  -8.521260499999978e-004   1.389659700000000e-002   1.685041400000000e-002
  endloop
endfacet
facet normal   5.474681654376554e-001   8.368264202355891e-001   3.875925917658412e-004
  outer loop
    vertex  -3.318278800000002e-003   1.728358100000000e-002  -7.238458799999998e-003
    vertex   3.760657300000019e-004   1.485741500000001e-002   1.274073200000000e-002
    vertex   6.015153600000000e-003   1.117259200000001e-002   3.287892300000004e-003
  endloop
endfacet
facet normal  -7.101707766188747e-001  -2.604606332561105e-001  -6.540777679759268e-001
  outer loop
    vertex  -7.554207900000002e-003   1.595580600000000e-002  -9.668709700000003e-003
    vertex  -6.829937500000003e-003   1.730107000000000e-002  -1.099079100000000e-002
    vertex  -5.416235900000003e-003   1.571701800000000e-002  -1.189494400000000e-002
  endloop
endfacet
facet normal   1.755207755512802e-001   9.064785623737819e-001  -3.840430617868766e-001
  outer loop
    vertex  -3.318278800000002e-003   1.728358100000000e-002  -7.238458799999998e-003
    vertex   1.497982199999995e-004   1.434840300000000e-002  -1.258149600000000e-002
    vertex  -5.416235900000003e-003   1.571701800000000e-002  -1.189494400000000e-002
  endloop
endfacet
facet normal   3.055764874724868e-001   9.503440023520533e-001   5.890065786948052e-002
  outer loop
    vertex  -6.969543200000000e-003   1.732958300000000e-002   1.096206500000000e-002
    vertex   3.760657300000019e-004   1.485741500000001e-002   1.274073200000000e-002
    vertex  -3.318278800000002e-003   1.728358100000000e-002  -7.238458799999998e-003
  endloop
endfacet
facet normal  -9.129070054620542e-001  -1.481530466953046e-001  -3.803307430818655e-001
  outer loop
    vertex  -1.050190700000000e-002   1.813770500000001e-002  -3.443285600000004e-003
    vertex  -7.554207900000002e-003   1.595580600000000e-002  -9.668709700000003e-003
    vertex  -9.706481400000003e-003   1.452692500000000e-002  -3.946010000000003e-003
  endloop
endfacet
facet normal   5.071528326576859e-001   7.216017876222686e-001  -4.712609303004355e-001
  outer loop
    vertex  -6.829937500000003e-003   1.730107000000000e-002  -1.099079100000000e-002
    vertex  -3.318278800000002e-003   1.728358100000000e-002  -7.238458799999998e-003
    vertex  -5.416235900000003e-003   1.571701800000000e-002  -1.189494400000000e-002
  endloop
endfacet
facet normal  -8.954575935725753e-001  -3.494862160316823e-001   2.757083294299771e-001
  outer loop
    vertex  -8.024368400000002e-003   1.666568400000001e-002   8.489662799999997e-003
    vertex  -1.036318600000000e-002   1.719293200000001e-002   1.561884899999996e-003
    vertex  -9.301463100000003e-003   1.521890300000000e-002   2.507927799999996e-003
  endloop
endfacet
facet normal  -8.957309764287667e-001  -4.325973748713117e-001   1.025940013861337e-001
  outer loop
    vertex  -9.301463100000003e-003   1.521890300000000e-002   2.507927799999996e-003
    vertex  -1.036318600000000e-002   1.719293200000001e-002   1.561884899999996e-003
    vertex  -9.706481400000003e-003   1.452692500000000e-002  -3.946010000000003e-003
  endloop
endfacet
facet normal  -9.768840583714917e-001  -2.133619401663708e-001  -1.319920407016144e-002
  outer loop
    vertex  -1.050190700000000e-002   1.813770500000001e-002  -3.443285600000004e-003
    vertex  -9.706481400000003e-003   1.452692500000000e-002  -3.946010000000003e-003
    vertex  -1.036318600000000e-002   1.719293200000001e-002   1.561884899999996e-003
  endloop
endfacet
facet normal  -8.960251670267211e-001   4.868619035225019e-002  -4.413259055660804e-001
  outer loop
    vertex  -7.554207900000002e-003   1.595580600000000e-002  -9.668709700000003e-003
    vertex  -1.050190700000000e-002   1.813770500000001e-002  -3.443285600000004e-003
    vertex  -6.829937500000003e-003   1.730107000000000e-002  -1.099079100000000e-002
  endloop
endfacet
facet normal  -7.247354666797523e-001  -6.241270987842762e-001   2.919312725618892e-001
  outer loop
    vertex  -7.388218800000001e-003   1.712402000000001e-002   1.133065900000000e-002
    vertex  -9.301463100000003e-003   1.521890300000000e-002   2.507927799999996e-003
    vertex  -4.779998699999999e-003   1.574501400000001e-002   1.485749800000000e-002
  endloop
endfacet
facet normal  -9.637432562469650e-001  -1.246754249254352e-001   2.359130654672579e-001
  outer loop
    vertex  -8.024368400000002e-003   1.666568400000001e-002   8.489662799999997e-003
    vertex  -9.301463100000003e-003   1.521890300000000e-002   2.507927799999996e-003
    vertex  -7.388218800000001e-003   1.712402000000001e-002   1.133065900000000e-002
  endloop
endfacet
facet normal   2.790993897235419e-001   9.132069272892889e-001   2.969118364208506e-001
  outer loop
    vertex  -4.779998699999999e-003   1.574501400000001e-002   1.485749800000000e-002
    vertex  -8.521260499999978e-004   1.389659700000000e-002   1.685041400000000e-002
    vertex   3.760657300000019e-004   1.485741500000001e-002   1.274073200000000e-002
  endloop
endfacet
facet normal   2.581534355749098e-001   9.368402241932607e-001   2.359813510309484e-001
  outer loop
    vertex  -6.969543200000000e-003   1.732958300000000e-002   1.096206500000000e-002
    vertex  -4.779998699999999e-003   1.574501400000001e-002   1.485749800000000e-002
    vertex   3.760657300000019e-004   1.485741500000001e-002   1.274073200000000e-002
  endloop
endfacet
facet normal  -8.058620032470458e-002   9.066561901871092e-001   4.141019404840106e-001
  outer loop
    vertex  -6.969543200000000e-003   1.732958300000000e-002   1.096206500000000e-002
    vertex  -7.388218800000001e-003   1.712402000000001e-002   1.133065900000000e-002
    vertex  -4.779998699999999e-003   1.574501400000001e-002   1.485749800000000e-002
  endloop
endfacet
facet normal  -8.830853876059933e-001  -3.901367012192473e-001   2.606790220914146e-001
  outer loop
    vertex  -8.024368400000002e-003   1.666568400000001e-002   8.489662799999997e-003
    vertex  -7.388218800000001e-003   1.712402000000001e-002   1.133065900000000e-002
    vertex  -7.624891100000000e-003   1.700330000000000e-002   1.034822800000000e-002
  endloop
endfacet
facet normal  -9.782695308200505e-001   2.346755786565213e-002   2.060048513917583e-001
  outer loop
    vertex  -1.050190700000000e-002   1.813770500000001e-002  -3.443285600000004e-003
    vertex  -8.024368400000002e-003   1.666568400000001e-002   8.489662799999997e-003
    vertex  -7.624891100000000e-003   1.700330000000000e-002   1.034822800000000e-002
  endloop
endfacet
facet normal  -3.358432161446801e-001   9.238329046324345e-001   1.836902242581162e-001
  outer loop
    vertex  -1.050190700000000e-002   1.813770500000001e-002  -3.443285600000004e-003
    vertex  -1.036318600000000e-002   1.719293200000001e-002   1.561884899999996e-003
    vertex  -8.024368400000002e-003   1.666568400000001e-002   8.489662799999997e-003
  endloop
endfacet
facet normal   1.303416735377850e-001   9.911871951454764e-001   2.364301839894598e-002
  outer loop
    vertex  -1.050190700000000e-002   1.813770500000001e-002  -3.443285600000004e-003
    vertex  -6.969543200000000e-003   1.732958300000000e-002   1.096206500000000e-002
    vertex  -3.318278800000002e-003   1.728358100000000e-002  -7.238458799999998e-003
  endloop
endfacet
facet normal   8.073897782248658e-002   9.942085497183911e-001  -7.092656150577975e-002
  outer loop
    vertex  -3.318278800000002e-003   1.728358100000000e-002  -7.238458799999998e-003
    vertex  -6.829937500000003e-003   1.730107000000000e-002  -1.099079100000000e-002
    vertex  -1.050190700000000e-002   1.813770500000001e-002  -3.443285600000004e-003
  endloop
endfacet
facet normal  -3.854170602925000e-001  -9.000356465873304e-001   2.034441557470102e-001
  outer loop
    vertex  -7.654293900000001e-003   1.720763200000000e-002   1.119648900000000e-002
    vertex  -7.624891100000000e-003   1.700330000000000e-002   1.034822800000000e-002
    vertex  -7.388218800000001e-003   1.712402000000001e-002   1.133065900000000e-002
  endloop
endfacet
facet normal  -2.478354093852635e-001   9.398709274224025e-001  -2.349898926358149e-001
  outer loop
    vertex  -6.969543200000000e-003   1.732958300000000e-002   1.096206500000000e-002
    vertex  -7.624891100000000e-003   1.700330000000000e-002   1.034822800000000e-002
    vertex  -7.654293900000001e-003   1.720763200000000e-002   1.119648900000000e-002
  endloop
endfacet
facet normal  -5.713433389598026e-001   7.995985359944657e-001   1.849566713091774e-001
  outer loop
    vertex  -1.050190700000000e-002   1.813770500000001e-002  -3.443285600000004e-003
    vertex  -7.624891100000000e-003   1.700330000000000e-002   1.034822800000000e-002
    vertex  -6.969543200000000e-003   1.732958300000000e-002   1.096206500000000e-002
  endloop
endfacet
facet normal   1.814656629245266e-002   8.643093540947595e-001   5.026331092915523e-001
  outer loop
    vertex  -6.969543200000000e-003   1.732958300000000e-002   1.096206500000000e-002
    vertex  -7.654293900000001e-003   1.720763200000000e-002   1.119648900000000e-002
    vertex  -7.388218800000001e-003   1.712402000000001e-002   1.133065900000000e-002
  endloop
endfacet
endsolid Main.HumanModel.BodyModel.Right.Leg.Seg.Patella.DrwSurf
